<svg width="1234" height="772" viewBox="0 0 1234 772" fill="none" xmlns="http://www.w3.org/2000/svg">
<path d="M638.914 94.2018C650.85 76.3976 646.609 69.631 646.524 50.6328L646.795 50.7946C647.928 56.4872 649.645 72.86 648.489 78.3038L648.82 78.6063C650.103 76.4139 650.362 75.933 650.814 73.4163L650.917 72.8462C653.315 74.6391 656.34 83.3131 656.719 86.4547C655.388 86.8392 655.388 86.9465 654.357 87.8058C653.038 90.2918 653.333 93.7727 653.333 96.6769C654.044 93.287 654.002 91.0427 656.719 89.1034C660.66 87.8529 664.287 90.4358 668.047 92.3348L667.541 93.0218C664.377 91.5357 660.654 89.2546 657.358 90.2918C651.658 96.6655 655.141 145.141 658.201 155.635C661.094 165.553 676.012 175.979 686.105 179.831L685.695 180.754C671.608 174.935 664.01 169.652 656.466 155.859C655.972 161.102 662.064 165.867 663.998 169.347C662.702 168.783 661.184 167.944 659.828 167.976C656.575 171.681 656.472 187.316 656.948 192.445C658.105 205.037 656.545 215.541 667.499 224.462C680.453 235.014 697.535 236.157 712.659 230.243L713.587 231.048C690.455 241.718 680.062 230.839 660.238 224.171C656.261 241.131 658.762 258.139 678.314 263.729C683.406 265.184 692.034 264.715 696.86 262.412L697.909 263.58C681.484 269.362 674.193 262.958 660.244 256.409C656.755 260.111 665.287 275.501 669.373 278.531C674.386 282.255 679.808 288.654 686.515 289.685C687.732 289.829 688.407 288.504 689.564 287.431C689.051 290.843 690.106 293.695 693.932 293.921C693.745 292.43 693.534 290.941 693.305 289.456L693.631 289.144C695.366 290.918 694.456 291.536 695.42 294.027C707.634 302.448 723.276 302.049 734.501 292.185C728.909 291.72 725.312 290.908 720.383 288.05L720.739 286.758C724.192 288.783 733.965 293.194 737.375 289.254L735.724 286.209L736.013 285.602C737.67 286.699 737.441 287.033 738.357 289.025L739.159 289.263C744.214 287.688 751.462 281.404 755.023 277.43C753.656 276.189 752.113 275.061 751.8 273.318C753.758 274.04 754.174 275.098 755.704 276.853L760.067 272.062L760.657 271.375C770.34 269.345 788.892 249.912 796.34 242.713C793.357 242.295 789.929 241.585 786.922 241.043L787.464 239.949C790.808 240.697 794.496 241.434 797.9 240.869L798.316 240.796C803.305 239.963 804.715 236.405 808.589 235.052C807.529 236.392 806.45 237.721 805.36 239.039C807.167 238.454 841.343 205.2 845.422 201.071L845.205 200.662C843.518 200.444 842.807 200.588 841.096 200.769C839.228 202.44 839.536 202.94 838.608 205.666C838.909 198.18 836.619 199.537 836.704 197.568C841.566 200.468 842.048 199.175 847.507 199.987C848.194 199.566 848.875 199.129 849.538 198.675C856.768 193.73 898.175 156.28 899.32 150.317C900.043 150.559 900.766 150.812 901.477 151.077C903.122 149.639 903.236 149.341 904.122 147.327C902.603 147.351 901.205 147.487 899.705 147.618L899.621 147.234C903.549 146.619 904.712 145.769 908.177 143.791L908.466 144.206C907.562 145.113 906.683 148.109 906.333 149.359C907.604 149.263 908.544 148.987 909.502 148.025C917.329 140.149 925.452 132.675 933.899 125.451L934.52 126.611C913.817 144.863 911.539 147.894 918.896 175.952L917.697 176.52C915.413 168.564 913.533 158.554 907.448 153.322L909.044 151.855C912.527 152.42 913.383 160.573 914.919 164.031C913.937 153.851 913.31 152.442 915.938 142.561C910.677 152.445 884.093 171.604 874.7 181.144C859.251 196.835 846.995 201.136 846.314 226.424C845.796 226.36 845.784 226.188 845.242 225.762L845.037 223.722C845.675 217.548 846.188 214.007 848.176 207.932L847.67 207.721C838.144 212.132 812.891 234.321 805.329 242.303C793.255 255.055 800.997 286.462 808.089 301.123C823.147 332.244 839.289 325.886 867.301 317.293C872.615 315.66 876.941 317.124 882.918 313.399C882.714 312.759 882.701 312.508 882.352 311.953C884.111 312.049 885.081 312.285 886.6 311.485L888.142 310.506C890.643 310.424 895.638 312.895 900.03 312.31C908.791 311.14 919.179 308.098 927.838 305.8C936.659 303.457 951.572 300.737 959.447 297.802L958.953 292.256C959.845 293.855 960.116 295.093 961.453 295.596C962.839 294.598 963.466 294.316 964.346 292.898L962.761 289.937L963.375 289.394C965.792 292.43 967.473 293.255 970.901 294.907C980.891 294.448 997.341 290.292 1008.04 288.478L1008.02 289.309C1004.99 290.293 984.32 294.451 983.838 294.939C985.344 295.917 988.429 295.095 990.405 294.674C992.37 294.27 994.31 293.771 996.22 293.178C997.877 292.665 1002.2 292.336 1003.97 292.596C981.512 297.819 966.201 296.418 961.911 322.362L960.67 320.413C961.315 316.392 962.454 308.648 961.815 304.754C955.145 303.763 908.074 312.655 900.103 315.323C868.494 325.903 849.267 389.266 859.642 418.339C873.814 426.058 886.335 429.07 901.38 434.195C901.489 435.132 901.645 435.212 901.368 435.971C883.702 430.116 855.937 416.666 838.807 426.27L837.818 425.709C840.608 423.68 842.386 422.118 845.79 421.355L845.669 421.567L848.26 420.409L848.098 419.692C845.169 417.934 842.747 417.196 839.554 416.08C840.602 415.441 841.946 414.429 842.982 413.701C845.85 414.764 848.779 416.237 851.647 415.219C853.334 413.406 852.84 413.891 853.31 411.114L854.382 415.178L856.624 416.375C857.28 415.806 857.75 415.154 857.437 413.939C848.959 380.839 867.24 348.265 882.244 320.18C882.521 319.653 882.78 320.237 883.28 318.953C879.894 317.156 871.434 321.27 867.433 321.733C864.553 322.066 861.818 321.915 858.871 322.294C850.616 323.535 839.162 325.668 831.841 329.624C812.156 340.269 794.948 379.969 805.601 399.918C808.469 401.552 811.24 403.803 814.301 405.189C817.681 406.723 828.371 406.856 830.437 408.576L829.292 409.448C830.021 411.557 829.648 413.031 828.545 414.927L827.286 415.353L825.274 416.329C825.852 413.421 826.226 413.994 825.039 411.939C823.303 410.651 808.155 404.641 805.956 404.291C786.163 401.141 759.844 426.975 762.344 447.032C763.212 454.082 769.587 458.287 774.359 463.014C774.425 463.534 775.136 468.141 775.136 468.066C748.528 446.253 745.088 439.077 710.496 457.566L709.17 456.825C712.996 454.638 716.786 452.527 720.938 450.912C725.451 449.158 729.94 447.69 734.489 445.922C737.074 444.918 741.135 443.342 743.286 441.437C743.25 441.467 742.798 440.146 743.244 439.129C744.612 439.794 744.154 439.438 744.913 441.112L744.407 442.344C742.37 444.188 737.327 445.546 734.543 446.516C743.412 446.328 744.666 446.384 753.168 448.09L753.137 447.624C747.642 443.878 745.335 438.767 740.195 434.385C731.802 427.229 725.228 422.35 713.942 423.839L713.695 422.662C720.305 421.951 724.017 421.958 729.952 424.657C729.476 422.678 727.722 421.9 726.572 420.329C714.979 404.514 718.443 391.414 730.94 378.31C708.598 381.624 679.423 412.908 680.779 437.732C680.827 438.629 681.309 439.675 681.773 440.457L682.622 440.68C685.406 438.625 690.714 434.673 693.143 432.273L693.546 433.312C691.528 435.357 688.654 438.587 688.178 441.52L688.828 441.381C689.714 441.198 689.353 441.255 690.184 441.172C685.551 447.584 683.743 452.554 685.255 460.496C685.87 463.708 686.858 469.377 689.732 471.293C690.853 470.855 691.052 470.865 691.95 470.033L692.402 470.793C691.275 471.7 690.371 472.456 689.305 473.433C688.383 475.831 689.341 477.563 689.949 480.349L690.588 480.635C692.299 475.899 693.287 472.632 696.818 468.87L697.366 469.519C690.636 478.794 691.944 486.56 693.317 497.575C693.98 502.896 697.119 516.623 700.439 520.489L701.602 520.875C710.339 516.313 722.354 504.351 732.501 499.241L732.886 500.346C719.751 508.468 700.331 521.598 702.639 539.613C703.747 548.27 706.103 556.877 707.658 565.469C708.748 570.59 710.357 581.97 711.743 586.386L711.153 589.93C709.243 581.682 707.736 573.036 706.164 564.695C705.886 563.409 705.663 561.299 704.748 560.533C704.645 562.908 704.717 563.971 704.934 566.301L703.928 566.398C699.741 548.073 700.831 531.1 682.58 520.575C663.456 509.061 614.373 500.103 601.754 524.124C594.303 538.305 587.373 556.878 580.617 571.872C578.337 576.934 580.061 581.236 574.913 589.08C576.181 589.429 579.827 587.662 581.598 587.242C609.233 580.698 638.269 589.374 663.968 600.258L663.215 601.073C640.294 591.734 604.732 580.09 579.91 589.354C566.006 594.543 556.919 621.397 548.68 634.101C548.524 632.305 551.178 627.249 552.086 624.043C550.062 625.531 550.504 627.833 548.068 629.033C549.342 625.441 553.723 617.685 555.624 613.713C564.771 594.61 572.034 586.226 564.965 564.743L565.756 563.438C568.562 569.8 569.157 575.386 570.382 582.104C571.627 579.069 573.014 577.095 574.14 573.728C573.581 572.671 572.975 571.932 572.262 570.985L572.46 570.156C573.46 571.385 573.612 571.741 574.99 572.419C577.825 570.246 581.364 560.348 584.075 556.093C584.318 557.212 584.089 556.914 584.74 557.712C587.641 552.347 590.019 546.045 592.317 540.376C596.283 530.593 601.377 520.16 600.957 509.364C600.867 507.08 598.836 502.47 597.916 500.224C602.476 501.295 599.946 505.139 602.943 509.047L603.858 508.945C604.756 507.544 604.762 507.488 604.883 505.795L602.19 503.613L604.172 502.503L604.039 500.014L605.136 495.271C605.359 497.638 605.347 499.853 606.419 501.92L607.172 501.983C611.005 497.719 614.541 485.403 616.934 479.861C622.314 467.386 613.595 454.169 602.9 447.924C593.626 442.506 586.208 442.466 576.154 444.963C570.957 449.944 553.595 464.244 553.705 470.942L552.509 471.675C551.773 470.451 552.274 470.829 551.1 470.342C548.51 472.434 549.638 471.71 548.205 474.857C548.343 474.556 545.94 476.318 545.606 476.628C547.503 476.762 547.821 476.552 549.415 475.836C555.084 473.29 563.45 474.612 569.103 476.778L567.95 477.584C551.127 472.229 542.546 479.341 530.968 489.923L530.568 486.931C533.467 483.893 539.002 478.5 540.987 475.172C552.881 455.234 537.642 414.194 510.084 421.74C499.158 424.732 489.976 430.868 479.688 435.206C475.91 436.799 473.508 440.051 471.129 440.588C472.02 441.351 475.15 440.88 476.835 441.378C480.12 442.349 483.692 444.288 486.775 445.82C484.653 443.941 478.603 439.805 477.985 438.08C479.356 436.889 478.726 437.232 480.64 436.969C480.624 437.788 480.566 438.343 480.493 439.161C482.187 441.186 490.881 448.332 493.547 450.728L492.768 451.492C472.779 435.132 459.527 443.682 439.796 452.699C428.717 457.762 399.23 465.995 391.309 474.697L391.175 475.512C393.81 478.228 397.375 480.671 400.359 483.099C422.518 501.133 440.01 524.077 436.044 554.446L434.749 553.853C440.567 517.897 401.684 466.857 363.773 482.753C355.952 486.032 347.387 487.157 343.161 494.015C342.1 495.738 343.516 499.705 343.938 501.235C343.131 502.658 343.098 502.586 342.976 504.186L342.286 505.093C338.044 499.304 337.317 498.557 330.284 496.785C319.063 499.711 310 504.716 300.094 507.707L299.943 507.319C300.785 505.293 302.627 506.789 304.92 504.13L304.324 502.853C317.498 495.597 327.203 498.439 335.773 482.632L336.745 483.161C336.104 484.581 335.525 486.119 334.949 487.574L335.306 488.168C338.977 487.587 339.587 488.122 340.337 484.413L341.098 484.178C341.148 485.923 340.903 485.473 341.718 486.811C345.299 486.623 371.552 476.611 376.246 474.074C377.412 473.444 379.22 471.553 380.185 470.497C387.485 470.029 388.991 468.683 395.919 466.658C408.098 463.101 423.641 458.784 433.118 450.031C440.743 442.071 444.18 427.638 444.11 416.497C443.956 392.305 434.759 355.2 408.85 346.716C403.504 344.966 388.659 344.095 382.654 343.733C360.278 342.386 337.504 340.757 315.109 340.681C315.662 342.844 316.394 344.785 317.14 346.881L316.413 347.251C313.518 341.85 314.656 342.41 308.402 341.958L308.331 342.756C310.923 345.801 313.72 348.175 315.856 351.377L315.453 352.232C311.235 347.191 306.661 342.454 300.551 339.741C289.745 334.943 251.221 334.314 236.606 332.511L236.067 331.849L237.235 331.263L242.278 331.312C248.531 332.599 265.936 334.086 272.924 334.006C276.587 335.026 299.189 336.601 301.59 335.096L301.73 335.496L302.189 335.348C298.023 334.262 278.68 333.519 273.204 333.208L276.342 332.221C283.557 332.229 291.405 334.001 298.733 333.136C323.686 330.189 347.33 305.379 362.193 286.847L363.021 287.938C351.794 301.967 338.573 316.905 322.531 325.579C318.452 327.785 314.325 329.979 310.474 332.558C313.593 332.708 315.539 334.387 318.283 334.774C324.341 335.627 331.654 336.221 337.589 337.372C348.516 339.59 359.696 339.28 370.66 340.034C398.8 341.972 421.434 347.781 442.486 323.868C456.849 307.554 466.411 290.52 469.463 268.507C470.429 261.534 472.059 257.684 471.779 250.081L465.352 243.285C468.464 248.68 470.93 256.445 469.699 262.573C468.341 259.288 468.7 248.068 464.01 244.949C456.125 239.706 406.149 215.062 399.966 215.12C396.857 216.776 396.034 220.956 394.94 224.329C394.507 221.377 394.833 217.696 396.137 214.998C394.591 213.903 395.232 214.05 393.497 213.955C393.481 217.375 393.67 220.558 392.592 223.813L391.621 224.003C391.813 218.646 391.686 216.385 390.501 211.151L390.184 210.829C384.591 205.034 363.624 196.05 355.269 192.051C336.513 183.209 317.825 174.221 299.208 165.089L299.541 164.304C312.462 170.292 326.45 176.746 339.147 183.123C342.748 184.808 348.843 187.863 352.379 189.151C365.285 195.588 380.591 201.511 392.438 207.542C394.488 209.986 398.694 213.621 401.943 211.584C401.53 207.242 395.879 207.28 392.791 207.333C389.093 204.317 379.235 200.25 374.677 198.36L375.402 197.335C383.94 200.724 387.951 203.301 397.206 203.159L399.205 197.866C398.857 199.84 398.326 201.534 398.925 203.38C400.806 204.542 406.559 208.141 408.222 208.559C420.969 211.756 436.608 211.792 449.52 210.758L449.519 212.081C434.786 213.291 419.962 212.792 405.344 210.592C412.731 215.462 420.371 218.975 428.323 222.787C433.272 225.16 438.024 227.921 443.024 230.196C452.395 234.461 462.04 238.249 471.323 242.686C480.962 247.292 519.073 270.321 527.59 269.252L528.415 269.707L527.6 270.219C530.524 270.95 533.719 273.586 536.427 275.177C542.499 278.304 552.409 284.971 558.842 286.685C579.132 292.095 602.599 266.231 600.572 247.036C599.437 236.279 588.875 216.56 581.363 210.143L579.629 210.984L579.054 208.545L579.513 207.028C581.696 206.801 581.878 209.699 584.231 210.057C585.239 205.418 578.689 202.155 577.989 196.695C586.334 206.486 595.827 207.116 607.739 203.929L608.637 205.09C601.566 206.758 596.177 207.682 589.003 205.703C587.813 205.375 584.636 204.222 583.753 204.632C585.714 206.593 586.522 206.954 589.172 207.784L586.99 208.026C586.412 212.236 598.617 232.86 601.613 237.059C607.877 245.833 613.336 246.239 623.815 245.129L623.718 246.083C616.235 247.77 614.21 246.944 607.028 244.708C608.082 249.823 614.18 261.28 617.669 264.065C634.359 277.395 659.358 257.906 655.761 238.07C655.357 235.847 654.881 228.521 653.508 227.29C652.254 228.382 651.736 229.19 650.272 229.497C650.977 227.673 653.134 227.134 654.707 225.182C654.869 223.976 655.159 221.114 653.911 220.431C651.134 222.139 652.08 224.162 648.904 228.498L647.91 228.212C658.37 212.159 654.61 181.721 652.134 162.815C650.863 165.622 649.278 168.591 647.862 171.356L646.832 171.031C649.38 166.54 651.266 158.685 651.682 153.943C652.393 145.907 650.857 98.1582 647.374 93.98C645.337 94.2458 644.596 95.8049 642.608 97.6315L642.379 97.3175C643.867 94.687 645.434 93.1833 647.494 90.9698C647.597 87.9909 647.657 85.0107 647.687 82.03C645.048 86.9169 643.265 90.2484 640.059 94.7502L638.914 94.2018ZM608.323 302.514C605.467 303.047 590.88 303.998 592.02 308.003C595.415 319.92 596.473 332.993 596.19 345.36C595.955 355.637 590.962 366.67 588.633 376.621C588.3 378.053 588.652 380.794 588.497 382.539L587.148 382.875L586.978 383.694C598.592 387.277 613.957 398.615 625.092 403.932C627.496 405.08 639.957 408.032 643.548 409.01C651.839 411.264 669.198 423.461 676.181 422.005C681.032 417.73 690.058 402.01 696.451 394.991C703.145 386.792 715.967 379.112 721.589 370.798C724.372 366.688 715.744 345.72 715.244 339.942C714.84 335.119 714.72 330.277 714.876 325.44C715.009 321.718 716.847 310.726 716.081 308.493C714.195 307.261 713.725 306.555 712.346 304.861C702.88 303.163 693.203 299.158 684.279 294.636C675.711 290.292 665.709 280.196 656.888 277.236C654.918 276.574 648.398 281.556 646.03 283.139C649.483 278.263 655.231 278.584 655.617 272.722L655.11 272.114C647.235 279.813 643.138 283.236 634.455 290.252C636.124 290.304 640.655 287.038 642.951 285.925C635.745 293.569 606.058 306.557 596.109 307.946C597.67 306.654 605.811 303.546 608.323 302.514ZM469.519 433.957C480.992 433.767 496.326 425.402 506.892 421.098C516.516 417.177 518.654 409.585 519.905 400.008L520.89 401.85C520.779 404.895 518.87 411.516 519.17 412.216L520.333 410.994C520.936 412.501 520.923 412.663 522.175 413.594C524.053 413.291 526.036 410.839 527.533 409.334L528.269 409.456L528.706 410.637C534.025 410.077 538.194 406.885 543.196 404.929C550.635 402.019 555.579 393.402 556.474 385.768C557.364 378.168 553.993 366.325 548.917 360.341C541.4 351.478 530.103 350.742 519.251 350.623C515.467 350.537 510.324 349.889 507.267 352.569C506.859 354.513 507.314 354.582 508.234 356.672C503.736 355.055 506.827 351.178 500.442 351.717L500.004 352.191C503.058 355.285 505.258 355.182 506.947 359.79C504.02 356.91 497.025 351.717 493.254 351.054C477.623 348.308 452.901 347.617 437.151 347.723C432.73 347.749 428.315 348.035 423.928 348.579C425.38 350.952 429.659 357.311 429.738 359.482L429.429 360.297C427.831 356.555 423.127 350.981 423.176 348.587L424.918 346.925C420.767 347.417 418.858 348.149 415.023 346.705L414.374 346.457C413.473 346.062 413.431 346.193 412.355 346.2C425.962 353.979 419.494 351.148 429.429 360.297C440.22 373.027 447.748 407.994 445.137 424.729C443.669 434.144 441.163 438.404 437.689 447.207C439.353 447.528 441.991 445.552 443.829 445.212C452.372 443.635 463.466 440.401 469.519 433.957ZM504.221 343.043C503.81 344.521 503.618 344.911 502.7 346.141C503.76 346.972 503.842 346.906 505.115 347.192C513.976 349.346 536.118 351.311 543.741 346.256C558.09 336.742 568.232 308.48 558.773 292.844C555.637 287.659 535.293 277.832 529.143 276.529L528.621 277.282L529.631 281.352L528.661 281.486C527.881 279.777 525.369 274.124 524.202 273.478C517.189 269.596 478.303 248.962 473.126 249.112C473.419 250.387 475.423 251.273 476.605 252.233L474.37 251.413C472.304 252.876 470.215 276.197 468.687 281.081C461.504 304.036 445.012 326.495 427.026 341.976C431.083 343.402 440.073 343.669 444.423 343.702L447.262 338.772C448.386 340.648 445.122 342.263 449.08 343.262C464.556 347.169 489.848 350.28 504.221 343.043ZM684.52 518.856C687.346 519.683 690.835 520.812 693.649 521.427C692.823 508.483 690.588 484.721 680.423 475.201C673.578 468.788 658.906 465.154 649.398 466.088C641.662 466.86 628.557 468.434 623.718 475.235C620.049 480.394 609.299 500.718 612.824 506.362C617.596 508.811 635.751 507.686 641.577 508.001C656.334 508.798 669.487 512.748 683.183 518.207C684.129 521.214 691.341 524.657 693.619 527.368C693.667 527.424 694.396 527.66 694.474 527.69L692.655 525.27L694.553 525.42C694.896 524.074 694.872 522.98 694.932 521.595L694.173 521.543L692.926 523C690.341 522.579 686.9 520.254 684.52 518.856ZM824.243 323.346C821.761 321.102 819.29 318.836 816.85 316.549L816.199 316.603L816.97 319.131C813.566 314.633 811.59 310.274 808.939 305.527C798.093 286.089 798.563 271.665 796.388 250.353C788.018 255.626 772.853 265.721 767.207 273.705C762.085 280.95 762.627 291.12 764.321 299.466L763.007 299.855C762.272 296.444 760.464 279.231 759.982 278.43C756.5 278.277 744.353 289.183 741.063 292.009C737.941 300.407 738.924 306.085 740.804 314.899L739.719 315.287C738.773 311.617 737.966 308.422 737.664 304.603C737.478 302.25 737.929 297.288 736.791 295.51C733.766 295.887 728.217 302.924 726.096 305.06C721.414 309.77 715.913 336.012 720.004 340.967C721.83 341.186 721.402 341.411 722.745 340.68C722.185 337.426 719.317 331.036 720.383 328.673C721.974 334.502 722.312 335.585 724.896 341.055C724.463 344.053 724.264 345.595 724.282 348.603L722.902 347.88C722.715 346.187 722.625 343.607 721.811 342.237L720.866 341.958L720.161 342.378C720.046 346.916 721.034 353.094 724.366 356.389C726.379 362.003 730.464 367.904 735.248 371.498C734.429 365.114 736.291 346.882 743.786 345.691L743.925 346.228C736.779 353.526 733.748 362.611 737.23 372.602C740.798 375.169 744.768 376.819 748.757 378.668L749.257 378.329L748.92 377.679L749.48 377.156C751.83 378.976 755.06 381.441 758.133 381.27C758.97 380.232 764.773 360.297 766.9 355.702L767.876 356.985C762.965 367.847 762.236 371.999 764.297 383.359C771.852 389.672 786.904 394.024 796.599 396.205C798.726 384.958 803.944 364.809 808.866 354.812C813.15 346.121 817.212 340.295 821.206 330.539C804.878 330.63 785.958 331.944 774.865 345.29L773.714 344.781C775.474 341.991 777.426 338.677 779.541 336.21C774.034 336.628 767.821 336.977 762.405 337.728C755.674 342.701 752.692 346.919 748.781 354.26L748.004 353.126C749.45 349.684 756.47 342.245 754.758 338.896C752.505 339.324 748.884 341.956 746.63 343.294C747.992 341.292 749.884 340.378 751.963 339.114C746.829 339.26 743.388 339.73 738.297 340.447L737.706 339.513L737.074 339.829C738.496 339.327 739.767 338.828 741.165 338.257C746.184 338.403 751.776 337.328 756.692 336.318C754.891 335.133 753.077 333.977 751.24 332.852L752.161 331.746C754.469 333.428 760.47 334.768 763.808 335.959C768.388 335.025 776.811 335.137 779.101 331.184C778.607 328.56 777.914 328.465 775.974 326.109L776.745 325.338C778.251 326.876 780.915 329.377 782.951 329.847C794.387 332.485 814.512 329.441 824.243 323.346ZM526.423 417.015C541.224 435.344 548.832 443.666 545.448 468.726L545.663 469.993C548.24 468.653 550.752 465.948 553.082 464.118C567.196 453.038 584.711 436.945 574.289 416.956C571.136 410.909 565.71 406.361 559.205 404.314C555.534 403.177 552.674 403.591 548.863 403.819C544.533 405.904 529.962 412.663 526.964 414.84C529.646 413.921 532.123 413.07 534.856 412.313C533.401 413.53 528.352 415.945 526.423 417.015ZM597.356 426.294C605.425 425.91 606.799 425.489 613.963 429.379C613.312 429.466 608.564 427.886 607.594 427.337C601.656 423.975 584.091 433.664 583.051 439.048C584.59 439.626 584.675 439.554 586.335 439.147C587.254 437.806 587.095 437.116 587.152 435.406L587.95 434.972L589.021 435.32C588.301 436.776 588.105 437.075 587.775 438.643C589.638 440.22 599.668 444.596 603.274 446.997C611.318 452.349 615.445 457.883 622.356 463.981C627.4 455.36 628.677 449.865 625.441 440.5L626.11 439.605C628.346 441.795 628.183 441.86 628.044 445.105L628.834 445.672C629.774 445.301 630.828 444.775 631.093 443.633C633.919 431.497 630.382 417.176 619.928 409.838C618.229 410.306 615.258 411.407 613.758 410.935C616.048 409.551 617.482 409.29 620.055 408.608C617 405.126 615.421 403.462 611.637 400.775C611.005 402.007 610.107 404.287 608.998 404.813C609.54 403.096 609.902 402.126 610.643 400.485C603.931 395.83 596.421 391.539 588.009 391.932L587.51 392.569C589.798 405.071 601.531 403.04 594.106 424.865C597.168 421.922 599.748 419.373 603.111 416.756C601.159 418.903 593.855 426.353 593.106 428.365C594.694 428.447 595.98 427.244 597.356 426.294ZM756.072 442.034C757.982 439.914 760.639 435.83 761.76 434.712C768.695 419.155 780.589 412.064 791.453 399.98C782.553 393.667 768.309 387.603 757.114 388.236C752.035 390.079 747.63 391.646 743.75 395.685C725.818 414.369 735.411 432.185 756.072 442.034ZM402.32 486.214C400.145 484.378 390.056 476.666 389.397 475.115C389.853 474.19 390.232 473.441 390.744 472.537L390.079 472.399C388.565 473.13 386.312 473.97 385.408 475.255C387.02 476.058 387.088 475.773 387.895 477.058C386.106 477.035 385.351 476.929 383.647 477.389C385.796 478.784 390.41 479.817 393.756 481.527L402.32 486.214ZM731.85 421.615C732.012 419.78 732.368 414.51 732.802 412.999C737.405 400.611 743.822 389.789 756.729 384.707C750.42 382.645 741.37 379.134 735.007 379.716C729.126 382.032 725.023 385.266 722.715 391.248C717.515 404.723 722.215 413.075 731.85 421.615ZM728.018 368.772L727.138 367.757L727.909 367.964C726.505 365.012 722.408 355.705 720.402 354.122C721.408 358.087 723.318 367.805 726.011 370.173L727.53 370.509L728.168 369.86L728.018 368.772ZM571.906 344.264L564.711 350.068C569.905 350.077 576.276 350.691 580.502 347.993C579.642 349.089 579.326 349.619 578.807 350.909C580.286 352.937 581.307 351.921 583.222 353.809L582.64 353.079L583.198 353.926L582.87 354.295C579.565 352.586 570.962 348.224 568.313 352.405C568.592 354.344 570.065 355.455 571.502 356.95L570.51 357.457C564.349 351.751 557.847 351.761 549.573 351.946C552.169 355.032 553.053 355.63 552.6 359.86L552.086 360.039C550.683 358.518 550.445 357.466 549.767 355.555C550.718 357.654 549.874 358.387 551.541 360.939C557.368 369.857 559.119 385.452 558.479 395.96C572.35 391.224 572.775 388.644 575.879 374.426C576.565 376.436 574.706 384.217 574.312 387.092C575.455 387.47 575.255 387.243 576.749 386.557C579.712 383.011 579.007 377.858 578.272 373.694L579.019 372.818C579.835 376.132 580.037 377.682 580.35 381.1C586.914 373.129 590.089 360.108 590.891 349.883C590.194 349.787 589.56 349.823 588.862 349.904C589.467 349.215 591.386 347.092 591.477 346.32C593.155 332.065 592.082 321.09 585.647 308.704C585.609 313.795 585.426 317.357 584.24 322.311L583.277 321.962C584.323 313.098 585.221 310.136 580.832 302.331C579.433 301.471 574.701 298.382 573.348 298.671C574.113 299.515 574.849 300.295 575.544 301.203C571.788 301.073 567.476 292.907 564.536 293.77L564.281 295.913C561.906 294.428 563.422 293.331 560.94 291.725L560.566 292.23C562.492 297.464 562.759 298.858 563.686 304.211C565.762 301.59 563.572 296.799 567.049 296.037L567.631 296.561C565.153 300.89 564.387 306.176 563.778 311.14C562.68 320.093 559.345 329.118 554.847 336.911C554.147 338.072 546.369 346.039 545.066 347.371L545.473 348.159L546.915 348.357L548.584 345.356L549.043 345.776L548.497 348.39C553.625 353.89 566.69 347.209 571.391 343.24L571.906 344.264ZM631.708 447.216C633.485 446.496 636.594 445.127 638.312 444.622L639.209 445.168C623.242 453.406 630.195 465.369 621.356 474.625C627.261 470.841 629.653 469.241 636.311 466.74C648.037 462.337 673.108 466.586 683.912 472.352C681.755 458.338 682.074 448.527 667.667 442.247L668.035 441.056C670.662 442.003 671.68 442.538 674.452 442.194C676.211 441.006 675.717 441.701 676.247 439.551C674.976 432.996 668.505 426.705 663.166 423.077C662.263 422.455 661.329 421.876 660.371 421.341C650.272 422.175 650.856 421.549 641.776 427.042C647.416 421.344 648.235 421.345 656.153 419.396C655.297 417.921 647.326 414.835 645.307 413.848C644.072 413.244 641.113 413.811 639.619 414.085C638.818 413.169 638.751 412.629 638.396 411.482C634.106 410.551 628.484 409.927 624.092 410.122C632.196 424.31 635.335 430.108 631.708 447.216ZM585.782 300.02C596.43 303.02 603.834 301.929 614.162 297.549C618.723 295.614 621.844 294.918 623.531 290.515L623.748 289.943L624.26 290.14L623.845 292.455L624.767 292.514L625.719 291.535C624.779 288.589 624.863 287.722 624.303 284.876L624.694 282.549C625.086 285.812 626.863 287.785 628.816 290.289C632.925 288.247 635.377 286.969 639.264 284.462C635.715 284.918 633.021 285.403 629.43 285.035L629.774 284.648L630.087 285.003L630.521 284.48C632.78 283.852 636.004 283.965 638.426 283.938C650.254 277.012 654.225 268.296 655.189 255.163C652.001 258.37 647.796 262.946 643.951 264.991C632.503 271.085 629.93 270.042 618.892 267.32L618.416 267.887C618.97 271.103 620.175 273.408 621.513 276.352C620.217 278.496 620.561 281.369 620.597 283.969C620.217 281.392 618.398 270.534 616.831 269.227C615.554 269.983 613.132 278.258 612.324 280.289L611.324 279.927C619.133 259.09 606.094 257.787 601.824 241.964C602.224 250.77 601.8 253.299 599.538 261.871C601.293 258.608 602.955 255.184 605.335 252.358C598.73 269.252 580.497 290.075 560.757 289.462C561.531 291.181 561.625 291.211 563.146 292.403L564.235 292.215C564.548 291.359 564.83 290.551 565.207 289.718C567.584 290.367 569.103 292.47 571.265 293.731C580.566 299.154 588.795 300.664 597.934 294.352L598.333 295.347C593.186 299.066 592.16 299.277 585.782 300.02ZM608.203 396.646L609.137 396.75C605.341 392.045 584.07 385.571 585.561 381.219C587.354 375.987 589.466 370.865 590.334 364.651C592.338 359.479 593.194 355.103 594.434 349.693C595.323 343.997 595.272 333.867 594.206 328.117C593.9 322.703 592.558 308.107 586.772 306.306L586.483 306.806C592.841 320.147 591.714 319.239 593.829 334.136C593.342 336.88 593.423 337.434 593.685 340.153C593.226 346.073 592.289 352.078 591.506 357.971C591.225 360.086 590.438 362.695 590.334 364.651C589.135 366.201 582.976 383.408 583.002 386.129L583.5 387.241C591.059 389.702 601.414 392.802 608.203 396.646ZM669.288 282.801C666.872 279.894 662.052 273.629 658.828 272.097C659.352 276.361 659.907 276.085 663.305 279.128C664.233 279.963 668.155 282.459 669.288 282.801ZM414.677 344.599C416.648 345.553 417.373 346.144 419.525 345.87L420.754 344.847C420.723 342.826 420.946 343.61 419.535 341.851L418.573 341.908L411.706 343.809L411.732 344.25C412.694 344.37 413.717 344.52 414.677 344.599ZM562.65 399.72C567.802 405.521 571.727 409.708 575.39 416.698C576.972 419.718 581.031 432.588 582.441 433.861C588.379 429.334 594.033 424.09 595.044 416.317C596.561 404.65 588.645 394.142 576.515 394.853C572.458 395.771 566.384 397.82 562.65 399.72ZM801.268 244.629C800.057 246.094 798.768 247.781 797.37 249.037C797.629 251.557 797.87 254.079 798.099 256.603C798.828 255.022 801.335 245.91 801.268 244.629ZM650.718 87.0573C648.211 92.0329 649.917 92.336 650.314 97.244C650.368 97.4459 650.423 97.6484 650.477 97.8503L650.862 99.3919C651.772 103.012 651.64 111.82 652.212 116.171L652.706 116.283C652.851 110.719 653.484 102.215 651.736 97.0988C650.706 92.8392 650.447 91.9111 651.097 87.6196C652.58 84.757 654.11 82.438 651.381 80.0798L649.874 80.2202C648.392 81.8215 648.705 81.0465 648.597 83.1021C649.663 84.6106 650.158 85.309 650.718 87.0573ZM657.069 269.55C659.244 267.155 658.605 262.893 657.189 260.251C656.785 262.244 655.418 267.083 655.55 268.604L657.069 269.55ZM602.882 516.312C604.732 514.042 607.263 512.363 606.088 509.462C602.086 511.477 602.738 511.656 602.529 516.209L602.882 516.312ZM656.062 177.149C656.725 173.588 657.587 168.222 658.527 164.833C658.274 164.488 657.888 163.895 657.593 163.641C655.954 166.942 655.707 172.857 655.568 176.602L656.002 177.154L656.062 177.149ZM751.806 389.279C754.065 388.302 756.355 387.387 758.663 386.536L758.735 386.199C757.723 385.451 758.048 385.686 756.421 385.815C753.752 386.943 752.017 387.476 749.944 389.513L750.275 390.026L751.806 389.279ZM313.033 336.636C314.978 336.983 317.027 337.51 318.944 337.259C315.447 335.855 312.562 335.509 309.477 334.18L309.007 334.444C307.351 335.358 307.181 335.547 305.374 335.762C305.999 336.644 308.591 338.411 309.596 339.151C311.346 339.055 311.513 338.247 313.033 336.636ZM887.184 318.567C882.34 322.458 881.623 323.175 879.219 328.814L879.478 329.279L880.05 328.667C881.466 327.019 887.877 320.112 888.136 318.828L887.184 318.567ZM683.37 452.639C683.797 449.969 688.34 437.968 688.021 437.511C684.767 440.721 679.664 447.998 682.948 452.597L683.37 452.639ZM653.086 128.659C652.791 137.137 653.369 145.241 653.592 153.695C653.658 156.366 652.351 159.906 652.598 161.998C653.899 163.16 653.966 163.317 655.617 163.622C655.918 162.549 656.273 162.111 655.918 161.292C653.634 156.02 655.544 132.39 653.086 128.659ZM636.853 409.124C631.611 407.31 627.044 406.22 621.459 406.344C621.103 406.352 619.88 405.643 619.518 405.415C620.477 406.828 620.802 407.938 622.29 408.092C626.906 408.567 632.244 409.056 636.853 409.124ZM716.377 338.808C716.069 340.91 716.467 341.921 716.991 343.933C717.208 344.144 717.419 344.354 717.63 344.565C717.997 340.326 717.479 336.633 717.323 332.413C716.985 323.439 719.245 316.005 722.462 307.815C724.216 303.373 727.554 304.012 728.325 299.618L727.801 299.507C725.915 301.469 724.372 303.819 721.595 303.651L720.805 302.683L723.318 300.947C722.48 300.703 722.938 300.727 722.149 300.866C709.158 303.14 694.607 296.836 683.484 290.567C680.013 288.612 677.103 286.103 673.657 284.516L673.542 284.803C676.91 290.868 711.55 306.727 718.13 303.103L717.853 305.246C718.51 305.627 718.648 305.612 719.389 305.665L720.094 305.711C719.715 310.358 716.925 316.924 716.22 324.842C715.298 329.118 715.822 334.49 716.377 338.808ZM860.48 192.28C865.8 187.543 901.254 156.645 902.043 153.223L901.904 153.134C898.747 155.715 860.341 191.321 860.124 191.946L860.48 192.28ZM639.396 411.619C652.092 411.559 673.138 424.975 678.326 437.019C678.814 431.752 679.152 428.311 680.899 423.113C682.104 419.507 689.66 408.125 689.527 406.105C685.093 412.401 678.405 419.646 677.187 426.876L677.013 427.927L676.085 428.544C674.856 427.949 673.952 427.626 672.97 426.665C673.994 426.114 674.856 426.37 676.223 426.397L676.555 425.171L675.82 423.914C671.656 423.351 675.597 426.318 671.084 423.773C665.239 420.476 645.849 409.547 639.8 409.638C639.197 410.873 639.33 410.237 639.396 411.619ZM729.41 369.188C729.584 370.716 730.048 371.931 729.307 372.884C726.867 371.968 726.578 371.424 724.258 371.773C717.015 378.373 709.074 384.38 702.211 391.099L702.651 391.764C714.015 382.096 719.425 379.582 733.422 373.681C732.609 372.764 730.181 369.897 729.41 369.188Z" fill="#D3211B" fill-opacity="0.960784"/>
<path d="M466.517 290.184C467.785 293.652 464.595 303.449 463.22 307.081C462.115 304.864 465.661 293.792 466.517 290.184Z" fill="#E32F35" fill-opacity="0.447059"/>
<path d="M583.27 354.664C586.309 355.896 587.213 358.335 587.828 361.331L587.09 361.463C585.727 358.278 585.365 357.372 583.27 354.664Z" fill="#E70F19" fill-opacity="0.741176"/>
<path d="M716.22 324.841C716.925 316.923 719.715 310.357 720.094 305.71L719.389 305.665C718.648 305.612 718.51 305.627 717.853 305.246L718.13 303.102C711.55 306.726 676.91 290.867 673.542 284.802L673.657 284.516C677.103 286.102 680.013 288.611 683.484 290.566C694.607 296.836 709.158 303.139 722.149 300.865C722.938 300.726 722.48 300.702 723.318 300.946L720.805 302.683L721.594 303.65C724.372 303.819 725.915 301.468 727.801 299.506L728.325 299.618C727.554 304.011 724.216 303.372 722.462 307.814C719.245 316.004 716.985 323.438 717.323 332.412C717.479 336.633 717.997 340.325 717.63 344.565C717.419 344.354 717.208 344.143 716.991 343.933C716.467 341.92 716.069 340.909 716.377 338.807C716.461 334.151 716.407 329.494 716.22 324.841Z" fill="#E70F19" fill-opacity="0.0156863"/>
<path d="M689.527 406.105C689.66 408.126 682.104 419.507 680.899 423.114C679.152 428.312 678.814 431.753 678.326 437.019C673.138 424.975 652.092 411.56 639.396 411.62C639.33 410.238 639.197 410.874 639.8 409.639C645.849 409.547 665.239 420.477 671.084 423.774C675.597 426.318 671.656 423.352 675.82 423.915L676.555 425.172L676.223 426.398C674.856 426.371 673.994 426.114 672.97 426.666C673.952 427.627 674.856 427.95 676.085 428.544L677.013 427.928L677.187 426.877C678.405 419.647 685.093 412.401 689.527 406.105Z" fill="#E70F19" fill-opacity="0.0117647"/>
<path d="M528.661 281.485L529.631 281.352C536.25 304.685 521.986 331.506 505.115 347.192C503.842 346.905 503.761 346.972 502.7 346.14C503.618 344.91 503.81 344.521 504.221 343.042C509.82 338.924 512.595 336.947 516.588 331.228C526.963 316.366 532.995 299.594 528.661 281.485Z" fill="#E32F35" fill-opacity="0.913725"/>
<path d="M608.203 396.645C601.414 392.801 591.059 389.701 583.5 387.24L583.002 386.128C582.976 383.407 589.135 366.2 590.334 364.65C589.466 370.864 587.354 375.986 585.561 381.219C584.07 385.57 605.341 392.044 609.137 396.749L608.203 396.645Z" fill="#E70F19" fill-opacity="0.0392157"/>
<path d="M506.947 359.791C505.258 355.183 503.058 355.286 500.004 352.192L500.442 351.717C506.826 351.178 503.735 355.056 508.234 356.672C510.633 359.141 510.926 361.432 512.412 364.423C517.499 374.66 523.228 390.357 520.89 401.851L519.905 400.009C520.141 384.74 516.443 371.88 506.947 359.791Z" fill="#C22F40" fill-opacity="0.905882"/>
<path d="M901.905 153.133L902.044 153.223C901.254 156.644 865.801 187.542 860.48 192.279L860.125 191.945C860.342 191.32 898.748 155.714 901.905 153.133Z" fill="#D50C1C" fill-opacity="0.117647"/>
<path d="M653.086 128.658C655.544 132.389 653.634 156.019 655.918 161.291C656.273 162.11 655.918 162.548 655.616 163.621C653.965 163.316 653.899 163.159 652.598 161.997C652.35 159.905 653.658 156.365 653.592 153.694C653.369 145.24 652.79 137.136 653.086 128.658Z" fill="#D50C1C" fill-opacity="0.521569"/>
<path d="M642.951 285.924C640.655 287.037 636.124 290.303 634.455 290.251C643.138 283.235 647.235 279.812 655.11 272.113L655.616 272.721C655.231 278.583 649.482 278.262 646.03 283.138C645.289 284.358 644.108 285.069 642.951 285.924Z" fill="#D50C1C" fill-opacity="0.0666667"/>
<path d="M763.007 299.854L764.32 299.465C765.929 307.843 770.424 319.527 776.745 325.337L775.973 326.108C769.327 320.049 764.646 308.631 763.007 299.854Z" fill="#C22F40" fill-opacity="0.905882"/>
<path d="M720.401 354.121C722.408 355.704 726.505 365.01 727.909 367.963L727.138 367.756L728.017 368.771L728.168 369.859L727.529 370.507L726.011 370.172C723.318 367.804 721.408 358.086 720.401 354.121Z" fill="#E70F19" fill-opacity="0.0235294"/>
<path d="M638.312 444.623C649.139 439.394 656.261 438.548 668.035 441.057L667.667 442.247C655.918 439.505 650.362 440.957 639.209 445.168L638.312 444.623Z" fill="#D5414A" fill-opacity="0.807843"/>
<path d="M724.367 356.388C721.035 353.093 720.047 346.914 720.161 342.377L720.866 341.957L721.812 342.236C722.625 343.605 722.716 346.186 722.903 347.879L724.283 348.602L724.367 356.388Z" fill="#E70F19" fill-opacity="0.870588"/>
<path d="M748.004 353.125L748.781 354.26C747.335 360.708 744.858 371.431 749.48 377.155L748.919 377.678C742.322 371.57 746.274 360.558 748.004 353.125Z" fill="#C22F40" fill-opacity="0.866667"/>
<path d="M740.803 314.898C744.467 323.179 745.587 325.322 752.161 331.746L751.239 332.852C745.256 326.913 742.978 322.79 739.719 315.287L740.803 314.898Z" fill="#C22F40" fill-opacity="0.866667"/>
<path d="M621.513 276.352C623.772 278.495 624.586 279.255 624.694 282.548L624.303 284.875C623.441 285.28 623.248 285.232 622.29 285.343C621.398 283.846 621.591 283.172 621.694 281.452L620.597 283.968C620.561 281.368 620.217 278.495 621.513 276.352Z" fill="#E33C42" fill-opacity="0.0235294"/>
<path d="M658.828 272.096C662.052 273.628 666.872 279.893 669.288 282.799C668.155 282.458 664.233 279.962 663.305 279.127C659.907 276.083 659.352 276.36 658.828 272.096Z" fill="#E32F35" fill-opacity="0.0196078"/>
<path d="M651.736 97.0977C653.484 102.214 652.851 110.718 652.707 116.282L652.212 116.17C651.64 111.819 651.773 103.011 650.863 99.3908L650.477 97.8492C650.423 97.6473 650.369 97.4448 650.314 97.2429C651.369 97.4231 650.917 97.5557 651.736 97.0977Z" fill="#D50C1C" fill-opacity="0.6"/>
<path d="M593.686 340.152C594.792 344.036 593.937 345.867 594.435 349.693C593.195 355.103 592.338 359.479 590.335 364.651C590.439 362.695 591.226 360.085 591.506 357.97C592.29 352.077 593.227 346.073 593.686 340.152Z" fill="#E32F35" fill-opacity="0.0823529"/>
<path d="M611.324 279.926L612.324 280.289C608.299 287.236 604.931 290.731 598.333 295.346L597.935 294.352C604.268 289.406 607.106 286.505 611.324 279.926Z" fill="#C22F40" fill-opacity="0.788235"/>
<path d="M583.277 321.961L584.24 322.31C582.379 329.467 579.982 334.2 575.651 340.197L574.54 339.669C579.376 333.187 580.735 329.43 583.277 321.961Z" fill="#C22F40" fill-opacity="0.878431"/>
<path d="M724.812 322.08C728.663 326.705 730.778 330.479 735.502 334.587C737.604 336.414 740.177 337.38 741.165 338.256C734.459 336.781 726.18 328.607 724.812 322.08Z" fill="#C22F40" fill-opacity="0.752941"/>
<path d="M571.503 356.949C575.029 361.625 576.987 367.358 579.019 372.818L578.272 373.693C576.814 369.672 573.009 360.463 570.511 357.456L571.503 356.949Z" fill="#C22F40" fill-opacity="0.678431"/>
<path d="M887.184 318.566L888.136 318.828C887.877 320.112 881.466 327.018 880.05 328.667L879.478 329.279L879.219 328.813C881.623 323.174 882.34 322.457 887.184 318.566Z" fill="#D50C1C" fill-opacity="0.0117647"/>
<path d="M594.206 328.117C595.271 333.867 595.323 343.997 594.434 349.694C593.936 345.868 594.791 344.037 593.685 340.153C593.423 337.434 593.342 336.881 593.828 334.137C594.26 332.412 594.177 329.955 594.206 328.117Z" fill="#E70F19" fill-opacity="0.231373"/>
<path d="M766.899 355.703C769.261 351.265 770.816 348.906 773.714 344.781L774.865 345.291C772.009 349.384 769.948 352.338 767.876 356.986L766.899 355.703Z" fill="#E32F35" fill-opacity="0.862745"/>
<path d="M657.189 260.25C658.605 262.892 659.244 267.154 657.068 269.549L655.55 268.603C655.417 267.082 656.785 262.243 657.189 260.25Z" fill="#E70F19" fill-opacity="0.0862745"/>
<path d="M625.442 440.499C622.549 436.94 619.693 434.544 616.964 430.764C619.952 431.613 624.158 437.088 626.11 439.603L625.442 440.499Z" fill="#C22F40" fill-opacity="0.866667"/>
<path d="M657.593 163.641C657.888 163.894 658.274 164.487 658.527 164.833C657.587 168.221 656.725 173.587 656.062 177.148L656.002 177.153L655.568 176.601C655.707 172.856 655.954 166.941 657.593 163.641Z" fill="#D50C1C" fill-opacity="0.219608"/>
<path d="M756.422 385.815C758.048 385.686 757.723 385.451 758.735 386.198L758.663 386.536C756.355 387.387 754.066 388.302 751.806 389.279L750.276 390.026L749.944 389.512C752.017 387.475 753.752 386.943 756.422 385.815Z" fill="#D50C1C" fill-opacity="0.0862745"/>
<path d="M650.315 97.2433C649.917 92.3353 648.212 92.0322 650.719 87.0566L651.098 87.6189C650.447 91.9104 650.706 92.8385 651.737 97.0981C650.917 97.5561 651.369 97.4235 650.315 97.2433Z" fill="#D50C1C" fill-opacity="0.490196"/>
<path d="M716.377 338.808C715.823 334.49 715.299 329.118 716.221 324.842C716.407 329.495 716.462 334.152 716.377 338.808Z" fill="#D50C1C" fill-opacity="0.54902"/>
<path d="M574.54 339.67L575.651 340.198C574.5 341.527 573.213 343.129 571.906 344.265L571.391 343.24C572.35 341.93 573.43 340.852 574.54 339.67Z" fill="#C22F40" fill-opacity="0.729412"/>
<path d="M438.09 546.367C438.719 547.616 439.325 552.111 438.789 553.671L438.363 553.779L437.578 552.497C437.371 549.611 437.372 549.192 438.09 546.367Z" fill="#E33C42" fill-opacity="0.027451"/>
<path d="M797.02 62.334L798.015 63.5104C794.351 72.2037 793.387 75.3887 787.157 82.3831C790.194 82.8453 790.754 77.8674 792.917 76.6784L793.713 76.7163C792.899 78.9721 791.808 81.0084 790.742 83.1539C783.614 87.3616 788.814 85.9948 785.349 93.3086L785.867 93.6829L786.283 93.2532C788.458 91.0565 789.242 90.9124 792.188 89.853C793.14 86.8596 791.242 84.7479 791.7 83.8976C793.23 81.0615 794.827 79.1535 795.665 75.6436L796.864 76.101C793.827 85.6892 796.05 93.9739 800.642 102.762C802.733 106.75 805.281 110.484 808.228 113.889L807.312 114.591C804.558 111.994 796.496 103.181 794.339 102.47L793.459 102.987C792.604 105.442 793.297 108.759 793.634 111.43L792.905 111.244C791.326 105.63 791.67 104.244 788.567 99.2007C777.203 114.292 757.976 157.283 751.035 176.23C749.516 180.369 750.456 190.009 751.047 194.805L750.498 195.829C748.944 189.301 749.251 185.658 748.161 179.679L747.66 180.194C747.474 182.048 747.546 182.547 746.269 183.918C740.828 188.708 724.896 222.683 724.3 231.523C724.047 235.326 725.011 243.248 726.355 247.186L725.541 248.283C724.559 245.837 722.685 240.104 720.275 239.148L717.823 240.327L717.859 239.121C719.263 237.821 718.534 238.136 720.552 238.066C721.986 238.845 721.992 238.757 722.806 240.124C722.8 238.869 722.818 228.877 722.649 228.62C721.992 230.474 721.733 231.764 721.336 233.657C720.275 233.231 720.799 233.273 719.709 233.492C709.845 249.291 703.169 257.221 710.707 275.653L709.737 276.023C706.471 269.482 705.953 269.632 705.513 262.364C702.753 267.185 699.295 271.026 696.27 275.53C694.456 278.231 695.029 282.803 691.516 285L691.07 284.542C691.287 284.132 691.498 283.722 691.709 283.31C693.763 279.288 701.144 266.111 700.054 262.713L697.909 263.579L696.86 262.411C708.959 256.539 712.689 241.161 717.696 229.715L717.178 229.067L713.587 231.047L712.659 230.242C714.087 229.366 715.497 228.458 716.883 227.517C726.951 220.613 733.248 202.595 737.453 191.412C739.339 186.393 740.972 184.048 741.979 178.589C723.884 188.162 704.597 187.828 685.695 180.754L686.105 179.83C693.257 182.053 699.969 183.812 707.507 184.314C720.317 185.168 733.38 183.842 743.491 175.062C745.997 172.886 749.335 168.693 750.757 165.946C756.795 154.281 780.192 105.426 780.836 95.6511C779.288 94.764 778.269 95.6077 775.721 95.756C776.329 94.6875 781.559 91.8435 782.451 91.7875C782.463 93.0501 782.355 93.4906 782.993 94.5983C784.042 92.8337 784.867 86.2425 785.337 83.6547C778.956 90.9793 769.557 96.4647 760.717 100.323L759.886 99.5334C781.047 88.9785 786.313 82.321 797.02 62.334ZM786.88 99.4551C789.115 98.1075 789.525 97.9153 791.001 95.6939L791.248 93.936C790.784 93.3249 790.151 92.407 789.609 91.9213C788.434 94.1698 786.639 97.3458 785.952 99.6744C786.518 99.616 786.572 99.7221 786.88 99.4551Z" fill="#D50C1C" fill-opacity="0.964706"/>
<path d="M789.61 91.9219C790.152 92.4076 790.784 93.3255 791.248 93.9365L791.001 95.6945C789.525 97.9159 789.115 98.1081 786.88 99.4557C786.573 99.7226 786.519 99.6166 785.952 99.675C786.639 97.3464 788.435 94.1704 789.61 91.9219Z" fill="#E70F19" fill-opacity="0.196078"/>
<path d="M493.547 450.727C509.637 466.334 516.139 487.391 505.865 508.112C511.425 504.617 515.978 500.644 517.279 494.092C517.779 495.111 517.63 496.088 517.612 497.248C520.223 496.862 528.126 489.141 530.568 486.93L530.968 489.922C521.801 499.44 511.137 508.454 501.673 518.13C509.706 516.501 512.917 516.638 520.999 518.97L521.138 519.56C505.459 517.591 501.427 518.87 488.888 528.855C471.553 542.656 454.053 556.623 437.611 571.489C436.389 572.593 434.255 576.385 433.327 577.899C441.184 578.26 455.9 582.662 462.231 587.651L460.78 588.449C451.513 583.703 440.848 577.838 430.153 581.383C416.318 585.969 363.683 630.544 351.199 642.428L351.094 642.971C353.532 643.302 354.148 642.67 356.442 642.579C359.377 642.465 362.594 643.176 365.422 643.869C361.746 645.122 355.711 643.387 349.812 645.424C340.811 648.521 336.883 654.277 329.967 658.417L329.548 657.362C333.396 654.283 353.19 639.5 354.1 636.631L353.496 635.847L352.926 635.992L353.891 635.998C350.8 636.287 339.257 649.492 333.41 651.776C337.253 648.142 340.585 645.05 343.379 640.494C350.343 629.146 354.92 607.866 355.697 594.952C356.03 595.521 356.832 596.803 357.044 597.344C355.649 611.398 350.558 629.508 344.836 642.308C353.333 632.467 351.685 634.6 362.954 627.977C362.563 629.273 362.48 629.369 361.846 630.502C364.149 629.146 366.737 624.698 367.228 624.554C371.714 623.258 391.178 605.823 392.792 605.588C397.364 603.401 425.185 581.401 426.393 577.959C425.568 577.872 411.395 590.095 409.15 591.796L408.264 591.371C424.446 577.542 429.925 574.95 434.749 553.852L436.044 554.445C435.033 559.96 433.262 565.324 431.187 570.52C441.509 564.453 454.676 552.433 464.212 544.687C474.423 535.809 485.517 527.8 495.229 518.369C516.499 497.716 512.235 470.806 492.768 451.491L493.547 450.727Z" fill="#D50C1C" fill-opacity="0.94902"/>
<path d="M779.004 467.689C781.77 470.274 790.266 479.365 794.008 478.422L794.321 476.095L795.05 475.581C795.574 476.77 795.255 476.74 794.773 478.389L795.448 478.673C800.298 475.936 805.45 459.337 810.132 455.105L811.059 455.197C806.167 463.674 799.732 479.045 803.142 487.282C808.426 500.05 858.305 545.058 868.873 551.074L871.976 552.82L871.573 553.338C868.524 553.506 867.228 551.032 865.294 551.369C866.342 553.441 869.464 554.443 871.591 554.956C873.32 553.342 875.597 549.113 876.827 546.872L877.55 548.018C876.905 549.018 875.079 554.076 874.537 555.493C875.61 557.492 878.333 563.37 880.303 563.734C880.273 563.62 879.424 560.642 879.436 561.021C879.189 551.822 884.033 542.301 887.781 534.159C888.064 532.965 887.986 533.567 887.335 532.093C888.371 530.851 889.685 528.844 890.625 527.48C896.729 518.642 903.585 510.77 910.671 502.725L911.153 503.857C899.657 517.258 880.827 540.309 882.406 559.116C882.503 560.218 882.683 561.312 882.936 562.389C884.129 565.491 884.714 566.997 886.365 569.849L892.643 577.371L892.131 578.142C889.311 575.848 887.998 573.589 884.497 571.928L884.63 572.134C882.027 571.755 879.472 570.208 877.104 568.973C879.797 571.653 883.497 574.781 886.401 577.365L886.25 579.194C881.008 576.129 877.965 571.378 870.56 567.795C862.932 564.104 846.157 566.532 843.579 565.641C846.555 564.364 854.262 564.076 857.57 564.081C862.311 563.76 865.818 565.821 868.325 565.203L868.096 564.183C862.378 559.424 863.968 563.345 859.696 562.024L859.323 560.407C861.564 561.67 864.318 560.709 866.77 560.145C865.746 558.912 864.71 557.69 863.661 556.48C860.148 552.462 853.478 546.154 848.857 541.788C830.371 524.329 811.668 501.651 791.182 487.156C787.615 484.631 780.035 485.115 775.618 484.82L776.07 484.268C782.927 483.958 784.644 484.407 790.386 484.458C789.995 482.565 779.884 473.026 777.89 471.128C777.739 470.13 778.553 468.699 779.004 467.689ZM865.638 555.382C858.817 542.627 845.603 535.431 836.432 525.431C833.944 523.154 826.34 515.945 823.773 514.537C826.948 518.126 831.504 523.11 835.45 525.785C843.687 535.732 856.232 546.584 865.638 555.382ZM800.244 487.46L801.124 487.821L801.063 487.12C800.684 482.634 802.823 471.848 802.184 470.46C798.454 477.408 794.857 480.459 800.244 487.46ZM875.043 562.491C874.471 560.393 874.362 559.201 872.639 557.82C870.554 557.1 869.235 556.752 867.108 556.251C869.361 561.935 868.825 562.033 875.043 562.491ZM799.382 489.602C795.562 481.737 796.382 485.124 790.591 481.346C793.821 486.81 793.779 486.713 799.382 489.602Z" fill="#D50C1C" fill-opacity="0.92549"/>
<path d="M836.432 525.43C845.603 535.43 858.817 542.626 865.637 555.38C856.232 546.582 843.687 535.731 835.45 525.784L836.432 525.43Z" fill="#E32F35" fill-opacity="0.0313725"/>
<path d="M802.184 470.459C802.823 471.847 800.684 482.633 801.064 487.119L801.124 487.82L800.244 487.459C794.857 480.458 798.455 477.408 802.184 470.459Z" fill="#E32F35" fill-opacity="0.0196078"/>
<path d="M790.592 481.346C796.382 485.124 795.563 481.737 799.383 489.601C793.779 486.712 793.821 486.81 790.592 481.346Z" fill="#E70F19" fill-opacity="0.01"/>
<path d="M835.451 525.785C831.504 523.109 826.949 518.126 823.773 514.537C826.34 515.944 833.944 523.154 836.433 525.431L835.451 525.785Z" fill="#E33C42" fill-opacity="0.345098"/>
<path d="M548.681 634.1C556.92 621.396 566.007 594.542 579.91 589.353C604.732 580.089 640.294 591.733 663.215 601.071C667.662 603.045 671.62 604.859 675.959 607.065C677.826 607.969 681.387 609.97 683.231 609.909C684.906 610.235 691.956 613.079 693.631 614.031C692.414 613.899 690.383 613.483 689.407 614.013C690.118 614.724 690.317 615.062 691.251 615.418C692.522 616.49 694.505 618.334 695.915 618.997C698.747 620.926 701.621 622.836 704.332 624.921C703.145 627.001 702.747 626.844 703.103 628.815L704.242 629.236C705.929 628.242 705.748 628.61 706.152 626.524C716.407 635.221 717.564 645.285 719.564 657.495C719.805 660.731 720.161 662.587 720.824 665.781C720.745 667.396 720.637 668.704 720.444 670.307C719.986 670.03 716.052 649.558 714.913 646.406C712.75 645.846 710.725 645.96 708.484 645.942C705.182 644.242 698.06 637.39 694.607 634.871C692.034 632.985 699.277 631.105 700.247 626.054C699.283 623.421 692.92 619.184 690.166 617.527C662.022 600.606 619.296 582.555 586.105 589.247C584.417 589.709 581.859 592.804 580.461 593.263C567.793 597.421 566.336 609.415 559.07 620.281C554.964 626.422 531.631 672.965 532.502 676.328C542.908 676.726 565.326 664.184 570.94 665.727L563.822 668.939L560.057 670.464L554.926 672.453C548.665 674.869 545.02 676.231 539.477 680.263L539.025 678.853C537.103 678.497 537.901 678.389 536.094 679.389L535.811 680.601L536.885 681.71L536.788 682.059C532.955 683.903 526.247 688.911 522.504 691.557C523.773 687.417 523.53 686.892 525.51 682.517C525.123 683.976 524.719 685.434 524.298 686.886L524.888 687.368C526.365 686.935 530.426 685.356 531.185 684.132C529.313 684.656 528.496 684.916 526.567 685.06C524.934 680.366 544.811 642.868 548.029 635.293L548.681 634.1ZM709.158 642.169C706.122 637.583 706.658 632.117 700.193 631.273L700.247 633.105C703.284 635.203 707.845 642.272 709.158 642.169ZM708.676 636.034C709.207 634.287 709.43 633.503 710.225 631.87C710.026 631.768 709.369 631.388 709.189 631.37L706.875 632.412L706.543 633.431C707.194 634.257 707.959 635.299 708.676 636.034Z" fill="#E32F35" fill-opacity="0.0156863"/>
<path d="M911.823 503.773L912.576 504.746C911.769 507.899 906.966 511.417 904.755 514.609C897.446 525.16 884.437 542.196 886.727 555.237C888.312 556.378 891.336 558.178 891.156 559.883C889.258 577.423 899.483 578.538 909.744 589.416C920.62 600.938 1012.02 679.806 1012.16 688.491C1007.21 689.401 995.033 678.137 991.002 674.792C976.451 662.703 958.73 652.072 948.475 635.879C946.155 632.136 940.299 631.058 939.003 626.731L939.491 625.369C944.673 629.894 950.373 634.71 955.338 639.386C961.128 644.84 964.756 652.97 972.637 656.459C974.053 656.068 975.541 655.809 976.692 654.929C975.348 652.175 964.629 643.068 961.743 640.459L929.471 610.977C925.555 607.422 909.491 591.398 906.044 590.494C905.213 588.904 900.971 584.991 899.465 583.511C897.802 581.786 894.536 579.058 892.644 577.371L886.365 569.849C890.396 568.805 889.679 560.009 885.799 557.307L884.401 557.671C882.853 559.569 883.292 559.583 882.937 562.389C882.684 561.312 882.503 560.218 882.407 559.116C880.828 540.309 899.657 517.258 911.154 503.857L911.823 503.773Z" fill="#CB7B81" fill-opacity="0.027451"/>
<path d="M515.424 98.9414C520.413 106.578 529.084 120.647 535.842 126.064C557.4 143.345 596.265 128.273 616.126 115.866L617.06 116.887C593.337 130.119 563.505 143.489 537.18 129.317L536.809 129.752C539.817 132.128 543.34 132.597 544.731 134.793C543.936 135.037 543.234 135.242 542.427 135.447C542.094 137.787 545.105 144.273 546.916 145.658C547.157 143.441 545.88 141.941 545.968 140.098C546.899 141.174 547.51 142.913 547.977 144.283C550.69 152.244 554.531 158.375 558.821 165.579L556.106 163.669C555.472 165.174 556.632 165.312 556.527 167.429C552.958 162.694 543.636 149.874 537.757 149.276C529.343 159.899 521.829 170.641 512.286 180.444L511.321 179.99C521.866 167.539 531.099 154.426 531.494 137.352C531.791 124.572 523.399 117.503 518.778 106.601C518.26 105.38 516.577 103.272 515.643 102.324L515.424 98.9414ZM538.685 146.065C542.911 149.067 545.689 153.247 549.93 156.908C548.1 153.957 538.883 139.644 536.007 139.717C535.49 140.859 535.332 141.352 534.507 142.336C533.229 139.641 534.595 135.49 532.868 131.752L532.176 131.687C533.994 139.872 532.51 146.624 529.486 154.157C527.96 157.438 526.417 160.712 524.858 163.979C527.011 161.328 529.495 158.408 531.477 155.671C534.426 151.759 534.992 150.192 538.685 146.065Z" fill="#E32F35" fill-opacity="0.956863"/>
<path d="M529.486 154.156L531.477 155.671C529.495 158.408 527.01 161.328 524.857 163.978C526.417 160.712 527.959 157.438 529.486 154.156Z" fill="#E33C42" fill-opacity="0.027451"/>
<path d="M877.104 568.973C879.472 570.208 882.027 571.755 884.63 572.134L884.498 571.928C887.998 573.589 889.312 575.848 892.132 578.142L898.916 584.614C900.495 586.044 904.339 589.815 906.044 590.494C909.491 591.398 925.555 607.421 929.471 610.977L961.743 640.459C964.629 643.068 975.348 652.174 976.692 654.929C975.541 655.808 974.053 656.068 972.637 656.459C964.756 652.97 961.129 644.84 955.338 639.386C950.373 634.71 944.673 629.894 939.491 625.368C938.485 624.742 935.243 621.716 934.207 620.782C928.399 616.13 922.024 609.434 915.715 604.221C906.026 595.18 896.253 586.227 886.402 577.365C883.497 574.781 879.798 571.653 877.104 568.973Z" fill="#D86465" fill-opacity="0.0196078"/>
<path d="M919.607 439.684C928.832 442.047 956.929 452.842 963.388 450.43C962.996 447.808 962.864 447.226 963.201 444.551C963.761 446.864 963.966 448.886 965.539 450.565L967.298 451.316L967.768 450.65C967.033 448.16 965.569 443.686 965.159 441.284L965.786 440.564C968.57 449.02 970.691 455.435 979.783 459.243C991.804 464.273 1006.02 468.854 1018.41 473.066L1017.46 473.907C1012.13 472.016 985.453 462.724 981.681 462.302C982.633 463.584 992.623 466.761 994.816 467.542L994.587 468.512C971.173 459.989 963.737 459.615 943.01 474.392L942.172 473.855C946.294 470.491 957.615 463.402 960.032 459.988L959.604 459.546C956.061 461.706 955.073 461.664 952.199 463.003C949.698 464.166 943.546 470.998 941.377 473.278L941.287 472.372C943.872 468.818 951.988 462.262 951.813 458.67C948.879 454.677 927.073 445.656 921.499 443.674L921.951 442.743C936.267 448.259 945.065 450.34 959.345 454.845C965.72 457.558 960.267 460.014 970.413 458.544C969.943 457.931 969.467 457.324 968.985 456.721C964.744 451.471 964.966 455.068 959.652 454.36C953.404 451.067 927.229 443.175 919.294 440.667L919.607 439.684Z" fill="#D50C1C" fill-opacity="0.945098"/>
<path d="M712.574 596.316L713.484 595.064C715.171 603.889 717.154 616.099 720.889 624.126C722.034 621.011 722.878 618.66 724.402 615.689C724.86 617.087 723.932 620.082 723.571 621.692C725.758 620.534 728.572 618.937 730.759 617.931C728.337 619.974 724.047 622.62 722.866 624.94C723.022 626.874 722.649 626.079 723.95 627.441C726.107 625.151 729.084 623.722 731.175 621.119L731.723 621.957C725.547 629.918 723.378 633.178 724.408 644.128C724.715 647.395 726.264 652.782 726.493 655.115L725.716 655.591C724.089 651.149 723.763 644.93 720.576 642.037L719.19 641.591C718.19 644.779 721.793 655.259 720.046 657.688L719.564 657.495C717.563 645.285 716.406 635.221 706.151 626.525L704.332 624.922C701.62 622.837 698.746 620.926 695.914 618.998L696.77 618.039C701.006 620.944 709.495 625.741 711.556 629.641L712.737 630.074C713.43 628.056 713.352 628.929 712.857 626.694C711.231 625.615 702.916 620.269 702.62 618.913C706.314 619.908 710.544 622.131 713.689 624.277C713.068 617.636 711.875 606.227 710.056 600.17L710.628 597.082C711.803 602.684 714.984 619.45 717.099 623.337L717.593 623.379C715.852 614.285 714.46 605.432 712.574 596.316ZM719.708 633.473L720.944 632.961C722.251 629.195 720.449 626.712 717.75 624.241C716.443 626.109 714.78 627.935 714.677 630.068C715.912 632.316 716.967 632.449 719.708 633.473Z" fill="#E70F19" fill-opacity="0.972549"/>
<path d="M544.476 638.969C545.853 637.258 546.368 636.727 548.028 635.293C544.811 642.868 524.934 680.365 526.567 685.06C528.496 684.915 529.313 684.656 531.184 684.132C530.426 685.355 526.365 686.934 524.888 687.368L524.297 686.886C524.719 685.434 525.123 683.975 525.51 682.517C523.53 686.892 523.773 687.417 522.504 691.557C526.247 688.911 532.955 683.903 536.788 682.059L537.435 682.8C518.458 696.703 512.148 704.466 501.877 726.782L500.312 725.932C502.399 718.761 513.919 704.231 515.227 695.649C515.424 694.353 515.865 689.339 515.18 688.381C513.878 690.104 515.049 693.72 513.922 696.872C512.267 701.501 507.105 711.348 504.277 715.181C503.575 712.975 510.866 701.657 511.779 697.734C514.447 686.259 515.434 677.424 512.959 665.841L514.259 664.244C515.718 673.224 516.486 676.557 515.568 685.512C517.143 683.927 518.788 682.71 520.539 681.336C521.387 676.967 529.779 663.316 532.649 659.393L532.067 660.303L532.367 660.755C529.558 667.107 525.329 673.628 522.812 680.233C521.005 684.976 519.843 684.259 517.112 687.652C516.883 689.96 516.604 689.399 517.507 691.177L518.884 691.159C520.707 689.441 523.172 681.661 524.439 678.66C528.481 669.084 542.427 648.015 544.476 638.969Z" fill="#D50C1C" fill-opacity="0.988235"/>
<path d="M994.816 467.543C992.623 466.761 982.633 463.585 981.681 462.303C985.453 462.724 1012.13 472.016 1017.46 473.907C1021.23 475.305 1032.64 480.086 1035.79 479.353C1042.34 479.963 1074.72 493.852 1082.35 496.448C1083.5 496.837 1085.58 498.512 1086.53 499.372C1082.63 498.34 1080.67 496.784 1076.38 496.201C1068.18 493.807 1029.04 478.504 1024.03 478.609L1023.59 478.544C1021.89 476.128 1014.47 474.157 1011.46 473.232L994.816 467.543Z" fill="#E33C42" fill-opacity="0.215686"/>
<path d="M721.27 667.922L723.354 668.748C723.776 671.255 727.265 677.486 729.337 678.752L730.362 678.342C731.205 676.353 730.982 674.479 730.97 672.273C732.573 679.041 734.061 692.733 733.658 699.628C733.507 702.08 734.628 703.732 734.037 706.895L733.411 706.914C731.742 703.225 731.501 695.62 729.982 691.66C725.433 679.794 722.999 680.74 721.27 667.922Z" fill="#D75760" fill-opacity="0.227451"/>
<path d="M242.315 527.999C250.677 523.285 267.721 518.542 276.816 514.749C286.192 510.838 294.683 506.571 304.325 502.854L304.92 504.131C302.628 506.789 300.785 505.293 299.943 507.32L300.095 507.707C281.871 515.918 263.246 520.698 245.996 528.437L242.315 527.999Z" fill="#D5414A" fill-opacity="0.764706"/>
<path d="M556.526 167.428C556.631 165.311 555.472 165.173 556.105 163.668L558.82 165.578C560.87 168.545 577.68 195.431 577.989 196.694C578.688 202.154 585.239 205.417 584.231 210.057C581.878 209.698 581.696 206.8 579.513 207.028L579.054 208.545C579.546 199.763 561.493 175.887 556.526 167.428Z" fill="#C22F40" fill-opacity="0.890196"/>
<path d="M719.564 657.496L720.046 657.689C721.793 655.26 718.19 644.78 719.19 641.592L720.576 642.038C723.764 644.93 724.089 651.15 725.716 655.591L726.493 655.115C728.066 657.882 728.18 659.533 728.723 662.697L728.241 665.023C725.427 666.837 724.83 664.83 722.125 666.795L721.299 666.716L720.823 665.782C720.161 662.588 719.805 660.732 719.564 657.496Z" fill="#E33C42" fill-opacity="0.396078"/>
<path d="M315.857 351.377C317.071 353.032 318.384 354.765 319.548 356.442C320.635 358.051 321.535 359.445 322.795 360.938C322.951 361.154 323.102 361.375 323.246 361.599C332.134 375.155 345.328 429.951 342.002 444.894C340.988 442.043 340.087 427.387 339.547 423.283C336.174 397.632 330.089 373.907 315.453 352.233L315.857 351.377Z" fill="#D5414A" fill-opacity="0.905882"/>
<path d="M301.831 162.234C305.459 162.973 336.309 179.104 342.929 181.892L339.147 183.123C326.45 176.746 312.462 170.291 299.541 164.304C300.031 163.369 300.948 162.87 301.831 162.234Z" fill="#DE4A51" fill-opacity="0.113725"/>
<path d="M746.269 183.919C747.546 182.548 747.474 182.048 747.661 180.195L748.161 179.68C749.251 185.658 748.944 189.301 750.499 195.829L751.047 194.805C756.403 214.967 768.623 230.734 787.464 239.949L786.922 241.043C766.237 229.513 757.506 217.347 748.576 195.557C747.775 193.606 747.468 192.187 746.19 190.423L745.028 190.286C742.238 192.417 741.949 195.139 739.49 197.614C740.979 192.009 745.654 190.376 746.269 183.919Z" fill="#C22F40" fill-opacity="0.87451"/>
<path d="M581.363 210.143C580.612 215.125 579.737 220.087 578.739 225.025C579.983 222.161 581.987 216.904 583.895 214.709L584.35 214.833C580.462 222.185 576.75 230.995 572.177 237.765C562.658 251.859 546.526 269.763 528.415 269.707L527.59 269.252C528.809 268.857 532.762 268.554 534.773 268.075C541.323 266.518 548.361 261.818 553.364 257.231C568.094 243.727 578.062 231.433 579.629 210.984L581.363 210.143Z" fill="#E33C42" fill-opacity="0.901961"/>
<path d="M1032.55 282.915C1047.89 279.798 1057.19 278.2 1072.7 276.299L1075.04 277.444C1069.99 278.077 1038.08 286.286 1036.49 285.792C1033.59 285.513 1033.98 286.497 1031.79 286.725C1033.48 283.014 1034.76 285.905 1037.72 284.453L1037.73 283.642C1036.11 282.857 1034.4 282.981 1032.55 282.915Z" fill="#E33C42" fill-opacity="0.411765"/>
<path d="M705.368 566.457L706.163 564.695C707.736 573.036 709.242 581.682 711.153 589.93C711.568 592.579 711.737 593.742 712.575 596.317C714.46 605.433 715.852 614.286 717.594 623.38L717.1 623.338C714.985 619.451 711.803 602.685 710.628 597.083L710.056 600.171C708.995 594.064 707.32 588.679 706.929 582.585L707.302 582.533C708.381 580.482 705.898 569.381 705.368 566.457Z" fill="#DE4A51" fill-opacity="0.258824"/>
<path d="M391.621 224.003L392.593 223.813C393.671 220.558 393.482 217.375 393.498 213.955C395.233 214.05 394.591 213.903 396.137 214.998C394.834 217.696 394.508 221.377 394.941 224.329C394.506 225.917 394.024 226.296 393.606 227.436C387.473 244.172 381.831 263.08 370.005 277.099L369.844 276.697C379.407 258.447 388.293 245.471 391.621 224.003Z" fill="#E33C42" fill-opacity="0.929412"/>
<path d="M923.482 131.711L923.946 132.713C920.156 136.203 913.275 143.663 908.466 144.205L908.177 143.789L909.382 143.146C909.292 143.123 898.741 145.394 897.036 145.782C891.143 147.118 863.487 147.252 861.342 142.948C862.432 142.63 871.38 144.746 874.194 144.96C894.054 146.468 907.93 144.472 923.482 131.711Z" fill="#E33C42" fill-opacity="0.87451"/>
<path d="M877.55 548.017C879.653 544.576 884.473 535.657 887.781 534.158C884.033 542.301 879.189 551.821 879.436 561.02C879.424 560.641 880.273 563.62 880.303 563.734C878.333 563.369 875.61 557.491 874.537 555.493C875.079 554.075 876.905 549.018 877.55 548.017Z" fill="#E70F19" fill-opacity="0.0117647"/>
<path d="M569.103 476.777C586.977 483.467 589.438 488.716 604.039 500.013L604.171 502.502L602.19 503.612L604.882 505.795C604.762 507.487 604.756 507.543 603.858 508.944L602.942 509.046C599.946 505.138 602.476 501.294 597.916 500.224C597.346 499.673 593.774 494.527 592.724 493.287C585.298 484.518 578.423 481.228 567.949 477.584L569.103 476.777Z" fill="#D50C1C" fill-opacity="0.85098"/>
<path d="M343.938 501.234C354.388 523.919 353.889 545.851 357.997 568.838L356.65 568.972C355.049 551.862 352.176 519.765 342.286 505.092L342.976 504.185C343.098 502.586 343.131 502.658 343.938 501.234Z" fill="#D5414A" fill-opacity="0.870588"/>
<path d="M864.764 287.906C857.034 277.005 851.244 262.171 847.936 249.262C846.706 244.46 843.242 228.245 845.037 223.721L845.242 225.761C845.785 226.187 845.797 226.359 846.315 226.422C846.893 248.738 853.937 268.662 865.873 287.421L864.764 287.906Z" fill="#C22F40" fill-opacity="0.878431"/>
<path d="M917.697 176.519L918.896 175.951C923.337 191.514 928.266 206.933 933.683 222.183C936.37 229.748 939.726 237.555 942.227 244.883L941.895 245.219C937.28 239.636 920.716 186.95 917.697 176.519Z" fill="#D75760" fill-opacity="0.8"/>
<path d="M127.496 320.107C139.553 320.511 150.815 323.607 162.971 323.364C164.134 323.34 167.515 324.429 168.777 324.818L168.242 325.731C161.316 326.238 130.793 322.361 122.292 321.374C124.26 321.373 125.067 321.393 126.987 321.007L127.496 320.107Z" fill="#D75760" fill-opacity="0.403922"/>
<path d="M333.41 651.776C339.258 649.492 350.8 636.288 353.891 635.998L352.927 635.992L353.497 635.848L354.1 636.631C353.19 639.5 333.397 654.283 329.548 657.362C326.591 659.64 323.053 662.515 320.068 664.649L319.573 663.612C320.739 660.743 330.489 653.276 333.41 651.776Z" fill="#E32F35" fill-opacity="0.0117647"/>
<path d="M685.449 99.1211C707.327 106.649 723.373 109.504 746.365 103.983L747.595 104.635C727.862 111.923 704.049 107.558 685.075 99.9142L685.449 99.1211Z" fill="#E70F19" fill-opacity="0.898039"/>
<path d="M728.723 662.697C729.38 666.584 729.747 668.549 730.97 672.273C730.982 674.479 731.205 676.353 730.362 678.342L729.337 678.752C727.265 677.486 723.776 671.255 723.354 668.748L721.27 667.922L721.3 666.717L722.125 666.795C724.83 664.831 725.427 666.837 728.241 665.024L728.723 662.697Z" fill="#DE4A51" fill-opacity="0.294118"/>
<path d="M500.311 725.934L501.877 726.783C494.131 739.77 484.373 756.994 477.155 770.217L476.554 769.903C477.043 766.534 496.987 731.912 500.311 725.934Z" fill="#DE4A51" fill-opacity="0.886275"/>
<path d="M1032.55 282.914C1034.4 282.98 1036.11 282.856 1037.73 283.641L1037.72 284.452C1034.76 285.904 1033.48 283.013 1031.79 286.725C1033.98 286.496 1033.59 285.512 1036.49 285.791C1031.61 287.547 1019.19 289.264 1013.27 290.609C1014.3 288.922 1015.1 288.814 1016.69 287.704L1016.01 286.482C1021.36 285.466 1027.37 284.433 1032.55 282.914Z" fill="#E33C42" fill-opacity="0.54902"/>
<path d="M502.38 80.709C504.471 82.6182 514.68 96.3075 515.424 98.9399L515.643 102.322C510.299 99.6727 504.294 87.1098 501.26 81.4942L502.38 80.709Z" fill="#D5414A" fill-opacity="0.537255"/>
<path d="M299.208 165.09C295.891 164.082 284.95 159.589 283.102 156.836L283.499 156.112C288.507 155.304 297.264 159.976 301.831 162.235C300.948 162.871 300.031 163.37 299.541 164.305L299.208 165.09Z" fill="#D75760" fill-opacity="0.305882"/>
<path d="M651.869 58.1078C651.881 54.3501 651.857 51.7027 652.387 47.9434C653.948 71.3358 651.773 77.0731 671.53 91.8917C668.674 92.0689 662.685 86.5155 660.323 84.5357C652.237 77.7505 652.484 67.9049 651.869 58.1078Z" fill="#D50C1C" fill-opacity="0.933333"/>
<path d="M408.264 591.372L409.15 591.797C411.395 590.096 425.569 577.872 426.393 577.959C425.185 581.401 397.364 603.401 392.792 605.589C394.959 601.181 403.981 594.706 408.264 591.372Z" fill="#D3211B" fill-opacity="0.615686"/>
<path d="M242.278 331.311C247.132 328.279 268.952 332.648 276.342 332.22L273.204 333.207L272.924 334.005C265.936 334.085 248.531 332.598 242.278 331.311Z" fill="#E32F35" fill-opacity="0.733333"/>
<path d="M921.951 442.743C919.703 441.973 918.034 441.243 915.877 440.29C916.702 439.918 918.209 440.442 919.293 440.667C927.229 443.175 953.403 451.067 959.651 454.361L959.344 454.846C945.064 450.341 936.267 448.259 921.951 442.743Z" fill="#D50C1C" fill-opacity="0.0588235"/>
<path d="M1008.04 288.478C1008.81 288.11 1014.79 286.773 1016.01 286.482L1016.69 287.705C1015.1 288.815 1014.3 288.923 1013.27 290.609C1010.24 291.303 1007.02 292.107 1003.97 292.596C1002.2 292.337 997.877 292.666 996.22 293.179C994.31 293.772 992.37 294.271 990.406 294.674C988.429 295.096 985.344 295.918 983.838 294.939C984.32 294.451 1004.99 290.293 1008.02 289.309L1008.04 288.478Z" fill="#E32F35" fill-opacity="0.65098"/>
<path d="M449.52 210.758C460.974 208.815 472.199 206.24 482.73 201.2C485.058 200.085 495.895 193.133 497.115 193.127C487.229 203.282 463.326 210.121 449.52 212.081L449.52 210.758Z" fill="#D75760" fill-opacity="0.85098"/>
<path d="M1024.03 478.61C1029.04 478.505 1068.18 493.808 1076.38 496.203L1074.68 496.764C1072.73 495.781 1065.96 493.837 1063.48 492.845C1052.26 488.369 1034.55 483.847 1024.03 478.61Z" fill="#D5414A" fill-opacity="0.705882"/>
<path d="M726.354 247.186C732.994 262.216 744.021 270.852 760.657 271.374L760.066 272.061C757.379 272.662 757.542 273.636 754.511 272.943C742.207 270.127 730.018 260.043 725.541 248.282L726.354 247.186Z" fill="#C22F40" fill-opacity="0.854902"/>
<path d="M691.251 615.419C690.317 615.063 690.118 614.725 689.407 614.014C690.383 613.484 692.414 613.9 693.631 614.032C697.216 615.045 700.313 615.81 702.621 618.914C702.916 620.27 711.231 625.615 712.858 626.694C713.352 628.93 713.43 628.056 712.738 630.075L711.557 629.641C709.496 625.742 701.006 620.945 696.77 618.04C694.794 615.744 694.402 614.695 691.251 615.419Z" fill="#E33C42" fill-opacity="0.172549"/>
<path d="M462.231 587.652C474.093 596.049 487.784 609.007 495.007 621.729L493.917 622.139C486.035 609.097 473.444 596.82 460.78 588.451L462.231 587.652Z" fill="#C22F40" fill-opacity="0.8"/>
<path d="M352.379 189.151C353.792 189.048 355.201 188.809 356.511 189.28C358.426 190.333 360.388 191.484 362.418 192.276C366.336 194.248 370.727 196.573 374.677 198.359C379.235 200.249 389.093 204.317 392.791 207.332L392.438 207.542C380.591 201.511 365.285 195.588 352.379 189.151Z" fill="#E33C42" fill-opacity="0.0784314"/>
<path d="M886.402 577.365C896.253 586.227 906.026 595.18 915.715 604.221L914.938 605.33C905.58 596.399 895.536 588.048 886.251 579.194L886.402 577.365Z" fill="#D5414A" fill-opacity="0.886275"/>
<path d="M498.5 627.201C504.397 636.458 512.678 653.326 514.259 664.246L512.96 665.843C510.719 652.193 504.679 639.212 497.499 627.515L498.5 627.201Z" fill="#C22F40" fill-opacity="0.835294"/>
<path d="M168.776 324.817C172.061 324.622 199.034 326.196 200.148 327.04L198.642 328.46C193.138 328.597 174.535 326.345 168.241 325.731L168.776 324.817Z" fill="#DE4A51" fill-opacity="0.615686"/>
<path d="M827.286 415.353L828.545 414.928C829.648 413.032 830.022 411.557 829.293 409.448L830.437 408.576C834.836 412.035 837.475 412.32 842.982 413.702C841.946 414.429 840.602 415.441 839.554 416.08C835.005 414.787 831.962 413.445 827.75 416.394L827.286 415.353Z" fill="#D50C1C"/>
<path d="M958.543 341.521L959.881 340.035C958.615 348.399 958.531 357.369 958.17 365.84C958.091 367.71 958.176 374.377 957.959 375.687C956.808 379.454 957.254 385.335 957.35 389.443C955.717 383.247 957.314 348.613 958.543 341.521Z" fill="#D75760" fill-opacity="0.411765"/>
<path d="M810.132 455.105C816.266 444.177 827.19 432.422 837.818 425.709L838.807 426.27C825.894 435.005 820.218 442.676 811.06 455.197L810.132 455.105Z" fill="#E33C42" fill-opacity="0.854902"/>
<path d="M941.377 473.278C943.546 470.998 949.698 464.167 952.199 463.003C955.073 461.664 956.061 461.706 959.604 459.547L960.032 459.989C957.615 463.403 946.294 470.492 942.172 473.856L941.377 473.278Z" fill="#E70F19" fill-opacity="0.0117647"/>
<path d="M865.872 287.422C871.53 296.213 879.231 304.877 888.142 310.507L886.6 311.485C886.347 310.41 878.092 303.38 876.718 302.139L875.929 302.303C877.013 303.917 878.845 306.004 878.755 307.919C874.748 303.157 868.108 293.165 864.764 287.908L865.872 287.422Z" fill="#C22F40" fill-opacity="0.886275"/>
<path d="M335.772 482.632C337.213 478.314 338.212 475.22 339.242 470.829C340.111 467.12 340.756 459.196 341.999 456.361L342.158 456.937L341.538 457.039L341.339 457.612L342.195 458.187C342.058 463.104 342.139 475.753 341.278 479.997C340.926 476.699 340.959 473.334 340.924 470.013C339.843 473.783 338.331 479.762 336.745 483.161L335.772 482.632Z" fill="#DE4A51" fill-opacity="0.92549"/>
<path d="M616.126 115.865C625.562 109.336 631.382 102.943 638.914 94.2012L640.059 94.7496C632.443 104.318 626.972 109.945 617.06 116.886L616.126 115.865Z" fill="#E70F19" fill-opacity="0.890196"/>
<path d="M485.039 53.6758C490.354 62.3838 497.759 72.2047 502.38 80.7093L501.26 81.4946L484.294 54.9518L485.039 53.6758Z" fill="#C22F40" fill-opacity="0.937255"/>
<path d="M520.999 518.971C531.983 520.017 545.79 532.374 552.904 540.412L550.958 540.061C542.379 530.722 533.369 523.449 521.138 519.561L520.999 518.971Z" fill="#D5414A" fill-opacity="0.823529"/>
<path d="M329.548 657.363L329.967 658.418C323.713 664.059 311.385 673.888 304.536 678.908L304.147 677.902C308.426 674.31 316.458 668.295 320.068 664.649C323.053 662.516 326.591 659.641 329.548 657.363Z" fill="#E33C42" fill-opacity="0.780392"/>
<path d="M342.928 181.893C347.343 184.076 353.313 187.297 357.864 188.815L356.511 189.281C355.201 188.809 353.792 189.049 352.379 189.152C348.843 187.864 342.748 184.809 339.146 183.124L342.928 181.893Z" fill="#DE4A51" fill-opacity="0.2"/>
<path d="M901.38 434.193C904.556 434.881 916.92 438.31 919.607 439.684L919.294 440.666C918.209 440.442 916.703 439.917 915.877 440.289C918.034 441.243 919.703 441.972 921.951 442.743L921.499 443.674C919.384 443.006 917.287 442.426 915.6 440.944C911.901 437.7 906.731 438.221 901.368 435.969C901.645 435.211 901.489 435.13 901.38 434.193Z" fill="#E33C42" fill-opacity="0.635294"/>
<path d="M857.569 564.08C855.545 561.889 856.063 561.949 853.418 560.05L853.472 559.254C856.172 558.708 857.582 558.381 859.323 560.406L859.696 562.023C863.968 563.344 862.378 559.423 868.096 564.183L868.325 565.202C865.818 565.82 862.311 563.76 857.569 564.08Z" fill="#E33C42" fill-opacity="0.156863"/>
<path d="M239.179 529.5L241.599 530.41C232.533 533.522 221.25 538.858 212.806 541.374L211.66 540.548C220.273 537.477 230.735 533.097 239.179 529.5Z" fill="#DE4A51" fill-opacity="0.815686"/>
<path d="M948.396 258.92C953.337 270.172 957.235 278.595 963.375 289.393L962.761 289.936C954.771 278.136 953.469 272.713 947.595 259.828L948.396 258.92Z" fill="#C22F40" fill-opacity="0.87451"/>
<path d="M646.832 171.031L647.862 171.356C642.952 180.573 637.065 187.954 628.539 194.192L627.448 193.616C637.565 184.894 639.728 182.247 646.832 171.031Z" fill="#E33C42" fill-opacity="0.886275"/>
<path d="M548.068 629.033C550.504 627.834 550.062 625.532 552.086 624.043C551.178 627.249 548.524 632.305 548.68 634.101L548.028 635.295C546.368 636.729 545.853 637.259 544.476 638.971L544.011 639.097C542.788 641.14 542.253 641.839 540.759 643.659L541.705 642.388L541.359 641.845C542.837 638.838 546.261 631.407 548.068 629.033Z" fill="#D50C1C" fill-opacity="0.776471"/>
<path d="M954.061 104.7L954.983 105.048C956.122 104.41 957.242 103.738 958.339 103.033C956.272 106.289 954.031 110.108 950.632 112.045L950.548 110.983C948.843 111.379 947.535 112.697 946.113 113.838C946.698 109.737 950.662 107.442 954.061 104.7Z" fill="#E33C42" fill-opacity="0.356863"/>
<path d="M797.021 62.335C798.449 59.0845 806.776 40.1969 808.77 39.0391C806.541 45.8954 801.25 56.7155 798.015 63.5113L797.021 62.335Z" fill="#E33C42" fill-opacity="0.882353"/>
<path d="M730.76 617.932L732.615 617.914L732.832 618.734L731.175 621.12C729.084 623.724 726.108 625.152 723.951 627.442C722.649 626.08 723.023 626.876 722.866 624.941C724.047 622.621 728.337 619.975 730.76 617.932Z" fill="#E33C42" fill-opacity="0.054902"/>
<path d="M200.148 327.039C203.778 328.016 204.168 327.243 207.547 327.687C212.88 328.387 218.268 329.202 223.595 329.984L219.598 330.821C214.333 330.24 203.263 329.292 198.643 328.459L200.148 327.039Z" fill="#E33C42" fill-opacity="0.733333"/>
<path d="M878.755 307.919C878.845 306.003 877.013 303.917 875.929 302.303L876.718 302.139C878.092 303.38 886.347 310.409 886.6 311.485C885.081 312.285 884.111 312.049 882.352 311.953C880.327 310.474 879.912 310.233 878.755 307.919Z" fill="#E33C42" fill-opacity="0.678431"/>
<path d="M899.705 147.617C899.097 149.084 898.97 149.145 897.837 150.304C895.638 151.044 892.939 152.269 890.836 151.801C890.468 150.072 890.499 150.128 889.595 148.617L887.715 148.175C888.631 147.106 895.337 150.197 897.711 149.289C895.319 149.293 894.728 149.308 892.33 148.741L892.222 148.083C894.554 146.743 896.53 147.273 899.621 147.233L899.705 147.617Z" fill="#E32F35" fill-opacity="0.0588235"/>
<path d="M709.171 456.824L710.496 457.565C704.236 461.686 701.814 463.395 697.367 469.519L696.819 468.869L697.626 466.969C696.379 466.876 693.408 469.768 692.402 470.792L691.95 470.033C695.686 466.228 704.694 459.953 709.171 456.824Z" fill="#E32F35" fill-opacity="0.803922"/>
<path d="M273.203 333.207C278.679 333.519 298.023 334.262 302.189 335.348L301.729 335.495L301.59 335.095C299.189 336.6 276.587 335.025 272.924 334.005L273.203 333.207Z" fill="#D50C1C" fill-opacity="0.0705882"/>
<path d="M915.715 604.221C922.023 609.434 928.398 616.129 934.207 620.782L933.285 621.469C927.211 616.045 921.089 610.663 914.938 605.33L915.715 604.221Z" fill="#D75760" fill-opacity="0.752941"/>
<path d="M825.274 416.328L827.287 415.352L827.751 416.392C822.888 421.353 818.484 432.986 816.459 434.806C816.525 431.795 823.665 419.193 825.274 416.328Z" fill="#E33C42" fill-opacity="0.901961"/>
<path d="M1080.18 274.791C1088.44 272.871 1096.74 271.058 1105.06 269.354V270.816C1099.73 271.804 1088.55 273.848 1083.52 275.461L1080.18 274.791Z" fill="#DE4A51" fill-opacity="0.796078"/>
<path d="M357.812 571.309C358.097 581.289 358.011 587.455 357.044 597.344C356.832 596.803 356.03 595.521 355.697 594.952C356.434 590.06 356.613 582.243 356.87 577.09C357.396 575.322 357.578 573.167 357.812 571.309Z" fill="#C22F40" fill-opacity="0.847059"/>
<path d="M954.061 104.702C955.284 103.238 969.202 92.111 970.835 91.2148C967.304 95.1544 962.773 100.2 958.339 103.035C957.242 103.74 956.121 104.412 954.982 105.05L954.061 104.702Z" fill="#DE4A51" fill-opacity="0.611765"/>
<path d="M960.52 417.284L960.959 417.098C962.436 425.342 962.875 432.69 965.786 440.566L965.159 441.285C962.056 434.467 959.875 424.674 960.52 417.284Z" fill="#C22F40" fill-opacity="0.917647"/>
<path d="M693.143 432.274C699.276 426.15 705.211 423.823 713.695 422.662L713.942 423.84C705.205 425.26 700.12 427.145 693.546 433.313L693.143 432.274Z" fill="#C22F40" fill-opacity="0.835294"/>
<path d="M732.501 499.242C738.177 495.368 744.883 491.42 751.704 490.266C744.962 493.85 739.731 496.134 732.887 500.346L732.501 499.242Z" fill="#E33C42" fill-opacity="0.772549"/>
<path d="M958.543 341.521C959.061 334.08 959.742 327.77 960.67 320.412L961.911 322.362C961.176 327.512 960.152 334.902 959.881 340.035L958.543 341.521Z" fill="#D5414A" fill-opacity="0.913725"/>
<path d="M1076.38 496.201C1080.67 496.784 1082.63 498.34 1086.53 499.372C1088.61 500.64 1091.19 500.44 1093.15 502.496L1092.71 502.77C1089.67 502.463 1078.51 498.09 1074.68 496.763L1076.38 496.201Z" fill="#D75760" fill-opacity="0.32549"/>
<path d="M554.926 672.453L555.572 673.279C549.085 676.147 543.365 678.835 537.435 682.801L536.788 682.059L536.885 681.71L539.477 680.264C545.02 676.232 548.665 674.87 554.926 672.453Z" fill="#DE4A51" fill-opacity="0.894118"/>
<path d="M223.595 329.984C226.38 330.139 235.128 330.272 237.235 331.262L236.067 331.848L236.606 332.509C234.616 332.738 221.816 331.211 219.598 330.821L223.595 329.984Z" fill="#E32F35" fill-opacity="0.839216"/>
<path d="M957.338 392.926L958.603 392.775C959.302 400.67 959.899 409.297 960.959 417.097L960.519 417.284C958.724 411.041 958.428 400.038 957.338 392.926Z" fill="#D5414A" fill-opacity="0.690196"/>
<path d="M941.286 472.373L941.377 473.279L942.172 473.856L943.009 474.393C938.514 477.652 935.008 480.127 931.049 484.083L929.802 483.541C933.875 479.802 937.406 476.319 941.286 472.373Z" fill="#D5414A" fill-opacity="0.882353"/>
<path d="M668.047 92.334C675.302 94.8109 678.387 95.5793 685.448 99.1205L685.075 99.9136C680.99 98.7372 671.855 94.8006 667.541 93.021L668.047 92.334Z" fill="#D5414A" fill-opacity="0.901961"/>
<path d="M923.481 131.712C925.572 129.764 933.658 122.079 936.159 121.604C933.429 124.258 927 130.676 923.945 132.715L923.481 131.712Z" fill="#D5414A" fill-opacity="0.745098"/>
<path d="M638.987 237.635L640.108 238.327C634.287 242.273 630.66 244.284 623.719 246.083L623.815 245.129C630.437 242.661 633.197 241.262 638.987 237.635Z" fill="#DE4A51" fill-opacity="0.796078"/>
<path d="M876.827 546.871C879.334 542.669 883.955 535.496 887.335 532.092C887.986 533.566 888.065 532.964 887.781 534.158C884.473 535.657 879.653 544.575 877.55 548.017L876.827 546.871Z" fill="#E33C42" fill-opacity="0.831373"/>
<path d="M944.064 115.787L945.8 116.405C942.088 119.905 938.485 123.395 934.52 126.611L933.899 125.451C937.37 122.316 940.756 119.094 944.064 115.787Z" fill="#D5414A" fill-opacity="0.870588"/>
<path d="M1109.97 268.396C1114.17 267.136 1123.83 265.194 1128.26 264.504L1128.56 265.017C1124.87 266.399 1114.86 268.44 1110.59 269.396L1109.97 268.396Z" fill="#D75760" fill-opacity="0.792157"/>
<path d="M1018.41 473.066C1024.17 475.105 1030.11 477.13 1035.8 479.353C1032.64 480.086 1021.23 475.305 1017.46 473.908L1018.41 473.066Z" fill="#E33C42" fill-opacity="0.654902"/>
<path d="M624.05 196.078L624.375 197.224C618.856 200.6 614.674 202.648 608.637 205.089L607.739 203.928C613.18 202.609 619.296 198.992 624.05 196.078Z" fill="#D75760" fill-opacity="0.807843"/>
<path d="M91.8875 319.464C89.4846 319.455 79.9921 319.155 78.2852 317.983L79.0329 317.445C81.5172 317.62 94.2747 317.96 95.7154 318.476C94.4374 318.781 93.1311 319.054 91.8875 319.464Z" fill="#D75760" fill-opacity="0.0980392"/>
<path d="M1128.26 264.505C1132.16 262.721 1134.37 261.64 1138.84 262.075L1140.11 263.113C1136.29 263.9 1132.33 265.145 1128.56 265.018L1128.26 264.505Z" fill="#D75760" fill-opacity="0.0156863"/>
<path d="M703.929 566.398L704.935 566.301L705.369 566.457C705.899 569.381 708.381 580.482 707.303 582.533L706.929 582.585C706.104 577.319 704.929 571.668 703.929 566.398Z" fill="#D5414A" fill-opacity="0.784314"/>
<path d="M469.945 30.4219C472.197 33.7603 477.232 40.85 478.845 44.1392L478.252 45.2952C475.61 40.9439 472.326 36.0387 469.405 31.8701L469.945 30.4219Z" fill="#CB7B81" fill-opacity="0.662745"/>
<path d="M1114.94 509.51C1117.75 509.972 1127.58 513.62 1129.94 515.19C1125.76 514.431 1117.78 511.721 1113.82 510.032L1114.94 509.51Z" fill="#D75760" fill-opacity="0.14902"/>
<path d="M1113.82 510.032C1108.74 508.473 1102.48 506.739 1097.86 504.338C1101.33 504.41 1111.44 508.207 1114.94 509.51L1113.82 510.032Z" fill="#D75760" fill-opacity="0.698039"/>
<path d="M550.958 540.061L552.904 540.411C555.777 543.923 558.922 547.951 560.884 552.055L560.014 552.626C557.183 547.838 554.403 544.386 550.958 540.061Z" fill="#C22F40" fill-opacity="0.717647"/>
<path d="M774.359 463.014C776.053 464.553 777.631 465.855 779.005 467.688C778.553 468.698 777.74 470.13 777.89 471.127C776.974 470.194 776.016 469.055 775.137 468.066C775.137 468.141 774.426 463.533 774.359 463.014Z" fill="#D50C1C" fill-opacity="0.854902"/>
<path d="M95.7156 318.476C100.781 319.527 105.52 317.944 108.902 318.598L103.361 320.019C99.8611 320.398 95.336 319.974 91.8877 319.464C93.1313 319.055 94.4376 318.782 95.7156 318.476Z" fill="#D75760" fill-opacity="0.427451"/>
<path d="M730.76 617.931C732.266 616.865 733.586 616.141 735.158 615.195L736.574 615.738C736.586 618.034 733.327 620.529 731.724 621.957L731.175 621.119L732.832 618.733L732.616 617.913L730.76 617.931Z" fill="#E33C42" fill-opacity="0.611765"/>
<path d="M957.35 389.444C957.254 385.336 956.808 379.454 957.959 375.688C958.266 381.26 958.639 387.199 958.603 392.776L957.338 392.927L957.35 389.444Z" fill="#D5414A" fill-opacity="0.843137"/>
<path d="M108.902 318.598C112.289 319.092 114.232 319.214 117.666 319.296L117.99 320.503C112.846 320.598 108.479 320.337 103.361 320.019L108.902 318.598Z" fill="#D75760" fill-opacity="0.768627"/>
<path d="M709.736 276.024L710.706 275.654C713.906 280.579 716.202 283.036 720.739 286.758L720.383 288.05C715.647 283.826 713.074 281.564 709.736 276.024Z" fill="#C22F40" fill-opacity="0.835294"/>
<path d="M994.816 467.543L1011.46 473.232L1010.22 473.896C1005.69 472.087 999.329 470.13 994.587 468.512L994.816 467.543Z" fill="#E32F35" fill-opacity="0.823529"/>
<path d="M647.91 228.211L648.904 228.498C647.145 232.821 643.668 235.395 640.107 238.327L638.986 237.635C642.885 234.877 645.132 232.048 647.91 228.211Z" fill="#D5414A" fill-opacity="0.901961"/>
<path d="M795.665 75.6441C796.816 71.5828 798.714 67.6216 800.907 64.0195C799.937 69.0788 797.798 72.2313 796.864 76.1015L795.665 75.6441Z" fill="#E32F35" fill-opacity="0.85098"/>
<path d="M930.284 484.834C928.856 486.14 921.589 492.629 920.866 493.738C919.908 494.299 918.908 495.048 917.854 495.125C920.691 492.004 923.3 489.572 926.367 486.702C927.735 486.536 928.994 485.579 930.284 484.834Z" fill="#E33C42" fill-opacity="0.290196"/>
<path d="M362.861 191.439C366.638 193.228 371.829 195.465 375.402 197.335L374.677 198.359C370.727 196.572 366.336 194.248 362.418 192.275L362.861 191.439Z" fill="#E32F35" fill-opacity="0.862745"/>
<path d="M560.884 552.057C564.17 556.379 564.432 558.129 565.757 563.438L564.965 564.743C563.691 559.816 562.733 556.91 560.015 552.628L560.884 552.057Z" fill="#C22F40" fill-opacity="0.976471"/>
<path d="M663.968 600.258C668.463 601.941 672.681 604.203 676.965 606.378L675.959 607.065C671.62 604.86 667.662 603.046 663.215 601.072L663.968 600.258Z" fill="#D5414A" fill-opacity="0.815686"/>
<path d="M1011.46 473.232C1014.47 474.157 1021.89 476.128 1023.59 478.545C1021.16 478.043 1012.96 474.887 1010.22 473.896L1011.46 473.232Z" fill="#D5414A" fill-opacity="0.454902"/>
<path d="M746.365 103.982C749.691 103.34 756.385 100.785 759.886 99.5332L760.718 100.323C756.355 101.935 752.138 103.634 747.594 104.635L746.365 103.982Z" fill="#DE4A51" fill-opacity="0.8"/>
<path d="M286.522 691.04C290.117 690.762 291.637 686.725 295.027 685.953C293.793 688.358 288.426 692.546 286 693.649L286.522 691.04Z" fill="#DE4A51" fill-opacity="0.0745098"/>
<path d="M478.252 45.2947L478.845 44.1387C480.848 46.9977 483.563 50.6036 485.039 53.6755L484.294 54.9515C482.617 51.8571 480.189 48.3004 478.252 45.2947Z" fill="#CB7B81" fill-opacity="0.827451"/>
<path d="M573.502 665.126C576.197 664.005 579.824 662.36 582.548 661.6L583.441 662.48L584.288 661.618L582.583 661.576L584.284 661.582C583.801 662.854 575.308 665.662 573.749 666.096L573.502 665.126Z" fill="#D75760" fill-opacity="0.286275"/>
<path d="M947.595 259.827C946.173 256.698 943.961 251.817 943.485 248.502C945.6 251.636 946.956 255.401 948.396 258.919L947.595 259.827Z" fill="#D75760" fill-opacity="0.737255"/>
<path d="M831.443 132.665C829.25 131.728 825.303 129.47 823.719 127.736C826.37 128.006 829.395 130.088 831.805 131.473L831.443 132.665Z" fill="#D75760" fill-opacity="0.0313725"/>
<path d="M317.14 346.881C318.897 350.066 321.543 354.447 322.549 357.815L322.406 357.952L321.677 357.764L319.911 354.077C318.762 352.139 317.452 349.329 316.413 347.251L317.14 346.881Z" fill="#E33C42" fill-opacity="0.815686"/>
<path d="M759.199 599.654L759.525 599.921C758.627 601.989 752.981 604.649 750.734 605.662L750.408 605.36C751.348 603.727 757.325 600.65 759.199 599.654Z" fill="#D5414A" fill-opacity="0.109804"/>
<path d="M117.666 319.295C120.94 319.591 124.217 319.862 127.496 320.106L126.987 321.005C125.068 321.392 124.261 321.372 122.292 321.373L117.991 320.502L117.666 319.295Z" fill="#D75760" fill-opacity="0.52549"/>
<path d="M573.501 665.125L573.748 666.095L564.725 669.699L563.822 668.94L570.939 665.728L573.501 665.125Z" fill="#D75760" fill-opacity="0.501961"/>
<path d="M946.113 113.839C947.535 112.698 948.843 111.38 950.548 110.984L950.632 112.046C949.897 112.727 946.384 116.044 945.8 116.405L944.064 115.788L946.113 113.839Z" fill="#E33C42" fill-opacity="0.635294"/>
<path d="M1072.7 276.299C1075.16 275.747 1077.68 275.126 1080.18 274.793L1083.52 275.463C1082 275.789 1076.13 276.943 1075.04 277.445L1072.7 276.299Z" fill="#DE4A51" fill-opacity="0.576471"/>
<path d="M853.309 411.115C852.924 408.774 852.562 408.664 853.719 406.768L853.195 408.301L853.562 406.836L854.309 407.003C855.165 409.983 854.478 411.995 854.382 415.178L853.309 411.115Z" fill="#D5414A" fill-opacity="0.172549"/>
<path d="M284.136 693.028L284.657 692.907C284.838 692.226 284.99 691.847 285.235 691.19L286.522 691.039L286 693.649C285.571 695.86 284.811 696.156 282.653 696.523C282.917 695.463 283.646 694.064 284.136 693.028Z" fill="#DE4A51" fill-opacity="0.0196078"/>
<path d="M511.321 179.99L512.286 180.444C510.633 182.302 508.121 185.066 505.881 185.955C506.344 183.778 509.504 181.543 511.321 179.99Z" fill="#DE4A51" fill-opacity="0.698039"/>
<path d="M711.743 586.387L713.484 595.066L712.574 596.317C711.737 593.742 711.568 592.579 711.152 589.93L711.743 586.387Z" fill="#D5414A" fill-opacity="0.717647"/>
<path d="M808.227 113.889C809.692 115.269 812.698 117.94 813.915 119.334L812.68 119.288L814.132 120.284L814.211 119.708L813.463 119.871L814.53 120.429C812.132 119.351 809.33 116.455 807.312 114.59L808.227 113.889Z" fill="#C22F40" fill-opacity="0.682353"/>
<path d="M892.644 577.371C894.536 579.058 897.802 581.786 899.465 583.512L898.916 584.614L892.132 578.142L892.644 577.371Z" fill="#D5414A" fill-opacity="0.741176"/>
<path d="M466.857 27.8944C465.802 26.5085 463.515 23.5984 463.538 21.8555C465.098 22.4494 466.505 25.1654 467.515 26.7178L466.857 27.8944Z" fill="#CB7B81" fill-opacity="0.0627451"/>
<path d="M691.251 615.417C694.402 614.694 694.794 615.743 696.77 618.039L695.915 618.997C694.505 618.334 692.522 616.49 691.251 615.417Z" fill="#D5414A" fill-opacity="0.517647"/>
<path d="M368.642 279.117C366.673 283.128 365.656 284.469 363.022 287.939L362.193 286.848C364.396 283.984 366.092 281.718 368.642 279.117Z" fill="#E33C42" fill-opacity="0.8"/>
<path d="M239.179 529.501C240.086 528.845 241.255 528.443 242.315 527.998L245.995 528.436C244.845 528.964 242.703 530.031 241.599 530.411L239.179 529.501Z" fill="#DE4A51" fill-opacity="0.545098"/>
<path d="M212.807 541.374C210.466 542.25 208.428 543.269 205.984 543.165C207.043 541.92 209.87 541.209 211.661 540.549L212.807 541.374Z" fill="#D5414A" fill-opacity="0.588235"/>
<path d="M899.464 583.512C900.971 584.991 905.213 588.904 906.044 590.495C904.339 589.816 900.495 586.045 898.916 584.615L899.464 583.512Z" fill="#D5414A" fill-opacity="0.588235"/>
<path d="M915.028 497.713L916.221 498.258C915.028 499.625 912.54 502.267 911.823 503.773L911.154 503.856L910.672 502.724L915.028 497.713Z" fill="#D5414A" fill-opacity="0.623529"/>
<path d="M792.905 111.244L793.634 111.43C794.261 113.257 795.484 116.781 794.918 118.567C793.58 116.493 793.339 113.73 792.905 111.244Z" fill="#C22F40" fill-opacity="0.694118"/>
<path d="M319.911 354.078L321.677 357.765L322.406 357.953L322.55 357.816C323.094 359.406 323.148 359.334 322.795 360.938C321.534 359.445 320.635 358.051 319.548 356.442L319.911 354.078Z" fill="#E33C42" fill-opacity="0.2"/>
<path d="M837.192 134.389C838.927 135.145 841.705 136.035 842.651 137.457C840.638 137.574 838.927 136.32 837.047 135.342L836.752 135.187L837.192 134.389Z" fill="#D5414A" fill-opacity="0.0980392"/>
<path d="M304.536 678.909C302.89 680.283 301.159 682.025 299.184 682.585C300.014 680.765 302.455 679.216 304.147 677.902L304.536 678.909Z" fill="#DE4A51" fill-opacity="0.670588"/>
<path d="M1138.83 262.073C1140.64 261.561 1143.48 260.489 1145.16 260.844C1143.18 262.713 1142.02 262.208 1140.11 263.111L1138.83 262.073Z" fill="#D75760" fill-opacity="0.164706"/>
<path d="M934.207 620.781C935.243 621.715 938.485 624.741 939.491 625.367L939.003 626.729C937.238 624.879 935.207 623.168 933.285 621.468L934.207 620.781Z" fill="#D75760" fill-opacity="0.584314"/>
<path d="M920.867 493.738C919.415 495.373 918.059 497.073 916.221 498.258L915.028 497.713C915.902 496.589 916.752 496.005 917.854 495.126C918.909 495.048 919.909 494.299 920.867 493.738Z" fill="#DE4A51" fill-opacity="0.133333"/>
<path d="M676.964 606.379C678.706 607.247 681.911 608.669 683.231 609.91C681.387 609.971 677.826 607.97 675.958 607.066L676.964 606.379Z" fill="#D5414A" fill-opacity="0.592157"/>
<path d="M495.007 621.729C496.357 623.687 497.34 625.115 498.501 627.201L497.499 627.514C496.378 625.622 495.175 623.94 493.918 622.138L495.007 621.729Z" fill="#C22F40" fill-opacity="0.682353"/>
<path d="M651.869 58.1087C651.303 55.5922 650.959 48.9226 652.152 46.8516L652.387 47.9442C651.857 51.7036 651.881 54.351 651.869 58.1087Z" fill="#DE4A51" fill-opacity="0.313725"/>
<path d="M831.805 131.473C833.612 132.416 835.408 133.388 837.192 134.39L836.752 135.188C835.336 134.688 832.877 133.375 831.443 132.665L831.805 131.473Z" fill="#D5414A" fill-opacity="0.247059"/>
<path d="M356.65 568.971L357.998 568.838L357.812 571.309C357.578 573.167 357.397 575.322 356.87 577.09L356.65 568.971Z" fill="#C22F40" fill-opacity="0.498039"/>
<path d="M1105.06 269.354L1109.97 268.396L1110.59 269.396C1108.88 269.823 1106.7 270.3 1105.06 270.817V269.354Z" fill="#D75760" fill-opacity="0.929412"/>
<path d="M357.864 188.814C359.417 189.653 361.284 190.738 362.862 191.44L362.418 192.276C360.389 191.485 358.427 190.333 356.512 189.28L357.864 188.814Z" fill="#E33C42" fill-opacity="0.67451"/>
<path d="M704.935 566.301C704.718 563.971 704.646 562.908 704.748 560.533C705.664 561.299 705.887 563.409 706.164 564.695L705.369 566.457L704.935 566.301Z" fill="#E33C42" fill-opacity="0.380392"/>
<path d="M200.718 544.775L201.39 545.001C200.756 546.115 198.267 546.879 196.93 547.434C196.176 547.19 196.534 547.347 195.926 546.645C197.154 545.518 199.032 545.231 200.718 544.775Z" fill="#D75760" fill-opacity="0.0784314"/>
<path d="M467.515 26.7168L469.945 30.4221L469.406 31.8703C468.474 30.5704 467.693 29.2542 466.857 27.8934L467.515 26.7168Z" fill="#CB7B81" fill-opacity="0.321569"/>
<path d="M627.448 193.615L628.539 194.192L624.375 197.225L624.05 196.079C624.363 195.766 626.918 193.994 627.448 193.615Z" fill="#DE4A51" fill-opacity="0.623529"/>
<path d="M554.926 672.454L560.056 670.465L560.434 671.495L555.572 673.279L554.926 672.454Z" fill="#D75760" fill-opacity="0.529412"/>
<path d="M926.367 486.703C927.367 485.666 928.711 484.525 929.802 483.541L931.049 484.083L930.284 484.835C928.994 485.58 927.735 486.537 926.367 486.703Z" fill="#D5414A" fill-opacity="0.580392"/>
<path d="M563.823 668.939L564.725 669.699L560.434 671.495L560.057 670.464L563.823 668.939Z" fill="#D75760" fill-opacity="0.313725"/>
</svg>
